<svg width="606" height="590" viewBox="0 0 606 590" fill="none" xmlns="http://www.w3.org/2000/svg">
<path d="M182.832 354.024C176.261 354.024 170.331 352.573 165.04 349.672C159.835 346.685 155.696 342.504 152.624 337.128C149.637 331.667 148.144 325.309 148.144 318.056C148.144 310.803 149.68 304.488 152.752 299.112C155.824 293.651 160.005 289.469 165.296 286.568C170.587 283.581 176.517 282.088 183.088 282.088C189.659 282.088 195.589 283.581 200.88 286.568C206.256 289.469 210.437 293.651 213.424 299.112C216.496 304.488 218.032 310.803 218.032 318.056C218.032 325.224 216.496 331.539 213.424 337C210.352 342.461 206.128 346.685 200.752 349.672C195.376 352.573 189.403 354.024 182.832 354.024ZM182.832 346.216C187.44 346.216 191.707 345.192 195.632 343.144C199.557 341.011 202.715 337.853 205.104 333.672C207.579 329.405 208.816 324.2 208.816 318.056C208.816 311.912 207.621 306.749 205.232 302.568C202.843 298.301 199.685 295.144 195.76 293.096C191.835 290.963 187.568 289.896 182.96 289.896C178.352 289.896 174.085 290.963 170.16 293.096C166.235 295.144 163.077 298.301 160.688 302.568C158.384 306.749 157.232 311.912 157.232 318.056C157.232 324.2 158.384 329.405 160.688 333.672C163.077 337.853 166.192 341.011 170.032 343.144C173.957 345.192 178.224 346.216 182.832 346.216ZM253.565 281.832C258.856 281.832 263.592 282.941 267.773 285.16C272.04 287.379 275.368 290.792 277.757 295.4C280.232 299.923 281.469 305.469 281.469 312.04V353H272.637V313.064C272.637 305.469 270.717 299.667 266.877 295.656C263.122 291.645 257.96 289.64 251.389 289.64C244.648 289.64 239.272 291.773 235.261 296.04C231.25 300.307 229.245 306.579 229.245 314.856V353H220.285V258.28H229.245V295.016C231.464 290.835 234.706 287.592 238.973 285.288C243.325 282.984 248.189 281.832 253.565 281.832ZM283.109 317.928C283.109 310.76 284.517 304.488 287.333 299.112C290.234 293.651 294.202 289.469 299.237 286.568C304.357 283.581 310.117 282.088 316.517 282.088C323.173 282.088 328.89 283.624 333.669 286.696C338.533 289.768 342.032 293.693 344.165 298.472V283.112H353.125V353H344.165V337.512C341.946 342.291 338.405 346.259 333.541 349.416C328.762 352.488 323.045 354.024 316.389 354.024C310.074 354.024 304.357 352.531 299.237 349.544C294.202 346.557 290.234 342.333 287.333 336.872C284.517 331.411 283.109 325.096 283.109 317.928ZM344.165 318.056C344.165 312.424 343.013 307.475 340.709 303.208C338.405 298.941 335.248 295.656 331.237 293.352C327.312 291.048 322.96 289.896 318.181 289.896C313.232 289.896 308.794 291.005 304.869 293.224C300.944 295.443 297.829 298.685 295.525 302.952C293.306 307.133 292.197 312.125 292.197 317.928C292.197 323.645 293.306 328.68 295.525 333.032C297.829 337.299 300.944 340.584 304.869 342.888C308.794 345.107 313.232 346.216 318.181 346.216C322.96 346.216 327.312 345.064 331.237 342.76C335.248 340.456 338.405 337.171 340.709 332.904C343.013 328.637 344.165 323.688 344.165 318.056ZM368.46 295.528C370.423 291.176 373.409 287.805 377.42 285.416C381.516 283.027 386.508 281.832 392.396 281.832V291.176H389.964C383.479 291.176 378.273 292.925 374.348 296.424C370.423 299.923 368.46 305.768 368.46 313.96V353H359.5V283.112H368.46V295.528ZM387.699 317.928C387.699 310.76 389.107 304.488 391.923 299.112C394.824 293.651 398.792 289.469 403.827 286.568C408.947 283.581 414.707 282.088 421.107 282.088C427.763 282.088 433.48 283.624 438.259 286.696C443.123 289.768 446.622 293.693 448.755 298.472V283.112H457.715V353H448.755V337.512C446.536 342.291 442.995 346.259 438.131 349.416C433.352 352.488 427.635 354.024 420.979 354.024C414.664 354.024 408.947 352.531 403.827 349.544C398.792 346.557 394.824 342.333 391.923 336.872C389.107 331.411 387.699 325.096 387.699 317.928ZM448.755 318.056C448.755 312.424 447.603 307.475 445.299 303.208C442.995 298.941 439.838 295.656 435.827 293.352C431.902 291.048 427.55 289.896 422.771 289.896C417.822 289.896 413.384 291.005 409.459 293.224C405.534 295.443 402.419 298.685 400.115 302.952C397.896 307.133 396.787 312.125 396.787 317.928C396.787 323.645 397.896 328.68 400.115 333.032C402.419 337.299 405.534 340.584 409.459 342.888C413.384 345.107 417.822 346.216 422.771 346.216C427.55 346.216 431.902 345.064 435.827 342.76C439.838 340.456 442.995 337.171 445.299 332.904C447.603 328.637 448.755 323.688 448.755 318.056Z" fill="white"/>
<path d="M131.12 365.912C130.416 365.912 129.808 365.688 129.296 365.24C128.848 364.728 128.624 364.088 128.624 363.32C128.624 362.552 128.848 361.944 129.296 361.496C129.808 360.984 130.416 360.728 131.12 360.728C131.824 360.728 132.4 360.984 132.848 361.496C133.36 361.944 133.616 362.552 133.616 363.32C133.616 364.088 133.36 364.728 132.848 365.24C132.4 365.688 131.824 365.912 131.12 365.912ZM132.08 379.16V431H130.16V379.16H132.08ZM210.073 378.008C215.833 378.008 220.569 379.896 224.281 383.672C227.993 387.448 229.849 393.144 229.849 400.76V431H228.025V400.568C228.025 393.784 226.425 388.632 223.225 385.112C220.025 381.528 215.641 379.736 210.073 379.736C204.249 379.736 199.545 381.816 195.961 385.976C192.377 390.072 190.585 396.056 190.585 403.928V431H188.761V400.568C188.761 393.784 187.161 388.632 183.961 385.112C180.761 381.528 176.377 379.736 170.809 379.736C164.921 379.736 160.185 381.816 156.601 385.976C153.081 390.072 151.321 396.056 151.321 403.928V431H149.401V379.16H151.321V392.888C152.601 387.896 154.969 384.184 158.425 381.752C161.945 379.256 166.073 378.008 170.809 378.008C175.673 378.008 179.833 379.384 183.289 382.136C186.809 384.824 189.049 388.92 190.009 394.424C191.161 388.92 193.529 384.824 197.113 382.136C200.761 379.384 205.081 378.008 210.073 378.008ZM269.586 431.672C264.786 431.672 260.466 430.616 256.626 428.504C252.786 426.328 249.746 423.256 247.506 419.288C245.33 415.256 244.242 410.52 244.242 405.08C244.242 399.64 245.33 394.936 247.506 390.968C249.746 386.936 252.786 383.864 256.626 381.752C260.466 379.576 264.786 378.488 269.586 378.488C274.386 378.488 278.707 379.576 282.547 381.752C286.387 383.864 289.395 386.936 291.571 390.968C293.747 394.936 294.834 399.64 294.834 405.08C294.834 410.52 293.747 415.256 291.571 419.288C289.395 423.256 286.387 426.328 282.547 428.504C278.707 430.616 274.386 431.672 269.586 431.672ZM269.586 429.944C273.747 429.944 277.587 429.048 281.107 427.256C284.627 425.4 287.475 422.616 289.651 418.904C291.827 415.192 292.915 410.584 292.915 405.08C292.915 399.576 291.827 394.968 289.651 391.256C287.475 387.544 284.627 384.792 281.107 383C277.587 381.144 273.747 380.216 269.586 380.216C265.426 380.216 261.554 381.144 257.97 383C254.45 384.792 251.602 387.576 249.426 391.352C247.25 395.064 246.162 399.64 246.162 405.08C246.162 410.52 247.25 415.128 249.426 418.904C251.602 422.616 254.45 425.4 257.97 427.256C261.554 429.048 265.426 429.944 269.586 429.944ZM277.554 362.264L259.602 374.744V372.824L277.554 359.96V362.264ZM326.367 428.12L347.103 379.16H349.119L327.039 431H325.599L303.519 379.16H305.631L326.367 428.12ZM382.685 429.944C388.509 429.944 393.405 428.472 397.373 425.528C401.341 422.584 403.741 418.552 404.573 413.432H406.493C405.597 418.872 403.037 423.288 398.813 426.68C394.653 430.008 389.277 431.672 382.685 431.672C377.885 431.672 373.597 430.616 369.821 428.504C366.045 426.392 363.069 423.32 360.893 419.288C358.781 415.256 357.725 410.52 357.725 405.08C357.725 399.64 358.781 394.904 360.893 390.872C363.069 386.84 366.045 383.768 369.821 381.656C373.597 379.544 377.885 378.488 382.685 378.488C387.741 378.488 392.061 379.576 395.645 381.752C399.229 383.864 401.917 386.616 403.709 390.008C405.565 393.4 406.493 396.984 406.493 400.76C406.493 403.064 406.461 404.792 406.397 405.944H359.645C359.709 411.256 360.797 415.704 362.909 419.288C365.085 422.872 367.901 425.56 371.357 427.352C374.813 429.08 378.589 429.944 382.685 429.944ZM382.685 380.216C378.589 380.216 374.813 381.112 371.357 382.904C367.901 384.632 365.085 387.288 362.909 390.872C360.797 394.456 359.709 398.904 359.645 404.216H404.765C405.085 398.904 404.221 394.456 402.173 390.872C400.189 387.288 397.437 384.632 393.917 382.904C390.461 381.112 386.717 380.216 382.685 380.216ZM422.326 365.912C421.622 365.912 421.014 365.688 420.502 365.24C420.054 364.728 419.83 364.088 419.83 363.32C419.83 362.552 420.054 361.944 420.502 361.496C421.014 360.984 421.622 360.728 422.326 360.728C423.03 360.728 423.606 360.984 424.054 361.496C424.566 361.944 424.822 362.552 424.822 363.32C424.822 364.088 424.566 364.728 424.054 365.24C423.606 365.688 423.03 365.912 422.326 365.912ZM423.286 379.16V431H421.366V379.16H423.286ZM457.312 431.672C451.616 431.672 447.008 430.52 443.488 428.216C440.032 425.912 438.016 422.424 437.44 417.752H439.36C439.744 421.592 441.44 424.6 444.448 426.776C447.52 428.888 451.84 429.944 457.408 429.944C460.224 429.944 462.688 429.4 464.8 428.312C466.976 427.224 468.64 425.784 469.792 423.992C470.944 422.136 471.52 420.152 471.52 418.04C471.52 415.736 470.848 413.88 469.504 412.472C468.224 411 466.592 409.88 464.608 409.112C462.688 408.344 460.032 407.512 456.64 406.616C452.864 405.656 449.792 404.696 447.424 403.736C445.12 402.776 443.136 401.304 441.472 399.32C439.872 397.336 439.072 394.712 439.072 391.448C439.072 389.144 439.776 387 441.184 385.016C442.592 383.032 444.512 381.464 446.944 380.312C449.44 379.096 452.224 378.488 455.296 378.488C460.544 378.488 464.768 379.8 467.968 382.424C471.168 385.048 472.896 388.696 473.152 393.368H471.232C471.04 389.528 469.568 386.392 466.816 383.96C464.128 381.464 460.288 380.216 455.296 380.216C452.608 380.216 450.176 380.728 448 381.752C445.824 382.776 444.096 384.152 442.816 385.88C441.6 387.608 440.992 389.464 440.992 391.448C440.992 394.264 441.728 396.536 443.2 398.264C444.672 399.992 446.464 401.272 448.576 402.104C450.752 402.936 453.632 403.832 457.216 404.792C460.864 405.816 463.712 406.744 465.76 407.576C467.872 408.408 469.664 409.688 471.136 411.416C472.608 413.08 473.344 415.288 473.344 418.04C473.344 420.6 472.64 422.936 471.232 425.048C469.824 427.096 467.904 428.728 465.472 429.944C463.04 431.096 460.32 431.672 457.312 431.672Z" fill="white"/>
<path d="M69.6667 212.763V426.848C69.6667 482.855 69.6667 510.858 80.566 532.248C90.1533 551.065 105.451 566.361 124.268 575.948C145.659 586.848 173.661 586.848 229.667 586.848H376.333C432.34 586.848 460.34 586.848 481.733 575.948C500.55 566.361 515.847 551.065 525.433 532.248C536.333 510.858 536.333 482.855 536.333 426.848L536.314 212.763M603 286.848L421.893 85.6478C380.703 39.8888 360.11 17.0094 335.853 8.56275C314.553 1.14408 291.367 1.14575 270.063 8.56775C245.81 17.0178 225.22 39.9004 184.038 85.6654L3 286.848" stroke="white" stroke-width="5" stroke-linecap="round" stroke-linejoin="round"/>
</svg>
