<svg xmlns="http://www.w3.org/2000/svg" xmlns:xlink="http://www.w3.org/1999/xlink" contentStyleType="text/css" data-diagram-type="DESCRIPTION" height="641px" preserveAspectRatio="none" style="width:2451px;height:641px;background:#FFFFFF;" version="1.1" viewBox="0 0 2451 641" width="2451px" zoomAndPan="magnify"><defs/><g><!--cluster Auth--><g class="cluster" data-entity="Auth" data-source-line="4" data-uid="ent0002" id="cluster_Auth"><path d="M8.5,6 L46.9609,6 A3.75,3.75 0 0 1 49.4609,8.5 L56.4609,28.2969 L379.5,28.2969 A2.5,2.5 0 0 1 382,30.7969 L382,312.5 A2.5,2.5 0 0 1 379.5,315 L8.5,315 A2.5,2.5 0 0 1 6,312.5 L6,8.5 A2.5,2.5 0 0 1 8.5,6" fill="none" style="stroke:#000000;stroke-width:1.5;"/><line style="stroke:#000000;stroke-width:1.5;" x1="6" x2="56.4609" y1="28.2969" y2="28.2969"/><text fill="#000000" font-family="sans-serif" font-size="14" font-weight="bold" lengthAdjust="spacing" textLength="37.4609" x="10" y="20.9951">Auth</text><text fill="#000000" font-family="sans-serif" font-size="14" font-style="italic" lengthAdjust="spacing" textLength="68.1338" x="163.9331" y="43.292">&#171;feature&#187;</text></g><!--cluster Home--><g class="cluster" data-entity="Home" data-source-line="11" data-uid="ent0006" id="cluster_Home"><path d="M1480.5,186 L1526.918,186 A3.75,3.75 0 0 1 1529.418,188.5 L1536.418,208.2969 L1877.5,208.2969 A2.5,2.5 0 0 1 1880,210.7969 L1880,312.5 A2.5,2.5 0 0 1 1877.5,315 L1480.5,315 A2.5,2.5 0 0 1 1478,312.5 L1478,188.5 A2.5,2.5 0 0 1 1480.5,186" fill="none" style="stroke:#000000;stroke-width:1.5;"/><line style="stroke:#000000;stroke-width:1.5;" x1="1478" x2="1536.418" y1="208.2969" y2="208.2969"/><text fill="#000000" font-family="sans-serif" font-size="14" font-weight="bold" lengthAdjust="spacing" textLength="45.418" x="1482" y="200.9951">Home</text><text fill="#000000" font-family="sans-serif" font-size="14" font-style="italic" lengthAdjust="spacing" textLength="68.1338" x="1648.9331" y="223.292">&#171;feature&#187;</text></g><!--cluster Properties--><g class="cluster" data-entity="Properties" data-source-line="17" data-uid="ent0009" id="cluster_Properties"><path d="M424.5,186 L508.0234,186 A3.75,3.75 0 0 1 510.5234,188.5 L517.5234,208.2969 L959.5,208.2969 A2.5,2.5 0 0 1 962,210.7969 L962,506.5 A2.5,2.5 0 0 1 959.5,509 L424.5,509 A2.5,2.5 0 0 1 422,506.5 L422,188.5 A2.5,2.5 0 0 1 424.5,186" fill="none" style="stroke:#000000;stroke-width:1.5;"/><line style="stroke:#000000;stroke-width:1.5;" x1="422" x2="517.5234" y1="208.2969" y2="208.2969"/><text fill="#000000" font-family="sans-serif" font-size="14" font-weight="bold" lengthAdjust="spacing" textLength="82.5234" x="426" y="200.9951">Properties</text><text fill="#000000" font-family="sans-serif" font-size="14" font-style="italic" lengthAdjust="spacing" textLength="68.1338" x="661.9331" y="223.292">&#171;feature&#187;</text></g><!--cluster Visits--><g class="cluster" data-entity="Visits" data-source-line="25" data-uid="ent0014" id="cluster_Visits"><path d="M1004.5,186 L1049.291,186 A3.75,3.75 0 0 1 1051.791,188.5 L1058.791,208.2969 L1435.5,208.2969 A2.5,2.5 0 0 1 1438,210.7969 L1438,312.5 A2.5,2.5 0 0 1 1435.5,315 L1004.5,315 A2.5,2.5 0 0 1 1002,312.5 L1002,188.5 A2.5,2.5 0 0 1 1004.5,186" fill="none" style="stroke:#000000;stroke-width:1.5;"/><line style="stroke:#000000;stroke-width:1.5;" x1="1002" x2="1058.791" y1="208.2969" y2="208.2969"/><text fill="#000000" font-family="sans-serif" font-size="14" font-weight="bold" lengthAdjust="spacing" textLength="43.791" x="1006" y="200.9951">Visits</text><text fill="#000000" font-family="sans-serif" font-size="14" font-style="italic" lengthAdjust="spacing" textLength="68.1338" x="1189.9331" y="223.292">&#171;feature&#187;</text></g><!--cluster Clients--><g class="cluster" data-entity="Clients" data-source-line="31" data-uid="ent0017" id="cluster_Clients"><path d="M1922.5,186 L1977.8594,186 A3.75,3.75 0 0 1 1980.3594,188.5 L1987.3594,208.2969 L2372.5,208.2969 A2.5,2.5 0 0 1 2375,210.7969 L2375,312.5 A2.5,2.5 0 0 1 2372.5,315 L1922.5,315 A2.5,2.5 0 0 1 1920,312.5 L1920,188.5 A2.5,2.5 0 0 1 1922.5,186" fill="none" style="stroke:#000000;stroke-width:1.5;"/><line style="stroke:#000000;stroke-width:1.5;" x1="1920" x2="1987.3594" y1="208.2969" y2="208.2969"/><text fill="#000000" font-family="sans-serif" font-size="14" font-weight="bold" lengthAdjust="spacing" textLength="54.3594" x="1924" y="200.9951">Clients</text><text fill="#000000" font-family="sans-serif" font-size="14" font-style="italic" lengthAdjust="spacing" textLength="68.1338" x="2117.4331" y="223.292">&#171;feature&#187;</text></g><!--cluster Common--><g class="cluster" data-entity="Common" data-source-line="37" data-uid="ent0020" id="cluster_Common"><path d="M1004.5,380 L1074.1533,380 A3.75,3.75 0 0 1 1076.6533,382.5 L1083.6533,402.2969 L1302.5,402.2969 A2.5,2.5 0 0 1 1305,404.7969 L1305,631.5 A2.5,2.5 0 0 1 1302.5,634 L1004.5,634 A2.5,2.5 0 0 1 1002,631.5 L1002,382.5 A2.5,2.5 0 0 1 1004.5,380" fill="none" style="stroke:#000000;stroke-width:1.5;"/><line style="stroke:#000000;stroke-width:1.5;" x1="1002" x2="1083.6533" y1="402.2969" y2="402.2969"/><text fill="#000000" font-family="sans-serif" font-size="14" font-weight="bold" lengthAdjust="spacing" textLength="68.6533" x="1006" y="394.9951">Common</text><text fill="#000000" font-family="sans-serif" font-size="14" font-style="italic" lengthAdjust="spacing" textLength="65.2832" x="1124.8584" y="417.292">&#171;shared&#187;</text></g><!--cluster API--><g class="cluster" data-entity="API" data-source-line="45" data-uid="ent0025" id="cluster_API"><path d="M1399.5,380 L1426.8047,380 A3.75,3.75 0 0 1 1429.3047,382.5 L1436.3047,402.2969 L1714.5,402.2969 A2.5,2.5 0 0 1 1717,404.7969 L1717,631.5 A2.5,2.5 0 0 1 1714.5,634 L1399.5,634 A2.5,2.5 0 0 1 1397,631.5 L1397,382.5 A2.5,2.5 0 0 1 1399.5,380" fill="none" style="stroke:#000000;stroke-width:1.5;"/><line style="stroke:#000000;stroke-width:1.5;" x1="1397" x2="1436.3047" y1="402.2969" y2="402.2969"/><text fill="#000000" font-family="sans-serif" font-size="14" font-weight="bold" lengthAdjust="spacing" textLength="26.3047" x="1401" y="394.9951">API</text><text fill="#000000" font-family="sans-serif" font-size="14" font-style="italic" lengthAdjust="spacing" textLength="65.2832" x="1528.3584" y="417.292">&#171;shared&#187;</text></g><!--entity LoginScreen--><g class="entity" data-entity="LoginScreen" data-source-line="5" data-uid="ent0003" id="entity_LoginScreen"><rect fill="#F1F1F1" height="46.2969" rx="2.5" ry="2.5" style="stroke:#181818;stroke-width:0.5;" width="126.4541" x="30" y="65"/><rect fill="#F1F1F1" height="10" style="stroke:#181818;stroke-width:0.5;" width="15" x="136.4541" y="70"/><rect fill="#F1F1F1" height="2" style="stroke:#181818;stroke-width:0.5;" width="4" x="134.4541" y="72"/><rect fill="#F1F1F1" height="2" style="stroke:#181818;stroke-width:0.5;" width="4" x="134.4541" y="76"/><text fill="#000000" font-family="sans-serif" font-size="14" lengthAdjust="spacing" textLength="86.4541" x="45" y="97.9951">LoginScreen</text></g><!--entity RegisterScreen--><g class="entity" data-entity="RegisterScreen" data-source-line="6" data-uid="ent0004" id="entity_RegisterScreen"><rect fill="#F1F1F1" height="46.2969" rx="2.5" ry="2.5" style="stroke:#181818;stroke-width:0.5;" width="146.709" x="191.5" y="65"/><rect fill="#F1F1F1" height="10" style="stroke:#181818;stroke-width:0.5;" width="15" x="318.209" y="70"/><rect fill="#F1F1F1" height="2" style="stroke:#181818;stroke-width:0.5;" width="4" x="316.209" y="72"/><rect fill="#F1F1F1" height="2" style="stroke:#181818;stroke-width:0.5;" width="4" x="316.209" y="76"/><text fill="#000000" font-family="sans-serif" font-size="14" lengthAdjust="spacing" textLength="106.709" x="206.5" y="97.9951">RegisterScreen</text></g><!--entity AuthAPI--><g class="entity" data-entity="AuthAPI" data-source-line="7" data-uid="ent0005" id="entity_AuthAPI"><rect fill="#F1F1F1" height="46.2969" rx="2.5" ry="2.5" style="stroke:#181818;stroke-width:0.5;" width="124.5537" x="167.5" y="245"/><rect fill="#F1F1F1" height="10" style="stroke:#181818;stroke-width:0.5;" width="15" x="272.0537" y="250"/><rect fill="#F1F1F1" height="2" style="stroke:#181818;stroke-width:0.5;" width="4" x="270.0537" y="252"/><rect fill="#F1F1F1" height="2" style="stroke:#181818;stroke-width:0.5;" width="4" x="270.0537" y="256"/><text fill="#000000" font-family="sans-serif" font-size="14" lengthAdjust="spacing" textLength="84.5537" x="182.5" y="277.9951">AuthService</text></g><!--entity HomeScreen--><g class="entity" data-entity="HomeScreen" data-source-line="12" data-uid="ent0007" id="entity_HomeScreen"><rect fill="#F1F1F1" height="46.2969" rx="2.5" ry="2.5" style="stroke:#181818;stroke-width:0.5;" width="129.7832" x="1726" y="245"/><rect fill="#F1F1F1" height="10" style="stroke:#181818;stroke-width:0.5;" width="15" x="1835.7832" y="250"/><rect fill="#F1F1F1" height="2" style="stroke:#181818;stroke-width:0.5;" width="4" x="1833.7832" y="252"/><rect fill="#F1F1F1" height="2" style="stroke:#181818;stroke-width:0.5;" width="4" x="1833.7832" y="256"/><text fill="#000000" font-family="sans-serif" font-size="14" lengthAdjust="spacing" textLength="89.7832" x="1741" y="277.9951">HomeScreen</text></g><!--entity HomeComponents--><g class="entity" data-entity="HomeComponents" data-source-line="13" data-uid="ent0008" id="entity_HomeComponents"><rect fill="#F1F1F1" height="46.2969" rx="2.5" ry="2.5" style="stroke:#181818;stroke-width:0.5;" width="169.917" x="1521" y="245"/><rect fill="#F1F1F1" height="10" style="stroke:#181818;stroke-width:0.5;" width="15" x="1670.917" y="250"/><rect fill="#F1F1F1" height="2" style="stroke:#181818;stroke-width:0.5;" width="4" x="1668.917" y="252"/><rect fill="#F1F1F1" height="2" style="stroke:#181818;stroke-width:0.5;" width="4" x="1668.917" y="256"/><text fill="#000000" font-family="sans-serif" font-size="14" lengthAdjust="spacing" textLength="129.917" x="1536" y="277.9951">HomeComponents</text></g><!--entity PropertyManagementScreen--><g class="entity" data-entity="PropertyManagementScreen" data-source-line="18" data-uid="ent0010" id="entity_PropertyManagementScreen"><rect fill="#F1F1F1" height="46.2969" rx="2.5" ry="2.5" style="stroke:#181818;stroke-width:0.5;" width="240.457" x="446" y="245"/><rect fill="#F1F1F1" height="10" style="stroke:#181818;stroke-width:0.5;" width="15" x="666.457" y="250"/><rect fill="#F1F1F1" height="2" style="stroke:#181818;stroke-width:0.5;" width="4" x="664.457" y="252"/><rect fill="#F1F1F1" height="2" style="stroke:#181818;stroke-width:0.5;" width="4" x="664.457" y="256"/><text fill="#000000" font-family="sans-serif" font-size="14" lengthAdjust="spacing" textLength="200.457" x="461" y="277.9951">PropertyManagementScreen</text></g><!--entity PropertyDetailsScreen--><g class="entity" data-entity="PropertyDetailsScreen" data-source-line="19" data-uid="ent0011" id="entity_PropertyDetailsScreen"><rect fill="#F1F1F1" height="46.2969" rx="2.5" ry="2.5" style="stroke:#181818;stroke-width:0.5;" width="196.7686" x="721.5" y="245"/><rect fill="#F1F1F1" height="10" style="stroke:#181818;stroke-width:0.5;" width="15" x="898.2686" y="250"/><rect fill="#F1F1F1" height="2" style="stroke:#181818;stroke-width:0.5;" width="4" x="896.2686" y="252"/><rect fill="#F1F1F1" height="2" style="stroke:#181818;stroke-width:0.5;" width="4" x="896.2686" y="256"/><text fill="#000000" font-family="sans-serif" font-size="14" lengthAdjust="spacing" textLength="156.7686" x="736.5" y="277.9951">PropertyDetailsScreen</text></g><!--entity PropertySearchScreen--><g class="entity" data-entity="PropertySearchScreen" data-source-line="20" data-uid="ent0012" id="entity_PropertySearchScreen"><rect fill="#F1F1F1" height="46.2969" rx="2.5" ry="2.5" style="stroke:#181818;stroke-width:0.5;" width="196.6387" x="467.5" y="439"/><rect fill="#F1F1F1" height="10" style="stroke:#181818;stroke-width:0.5;" width="15" x="644.1387" y="444"/><rect fill="#F1F1F1" height="2" style="stroke:#181818;stroke-width:0.5;" width="4" x="642.1387" y="446"/><rect fill="#F1F1F1" height="2" style="stroke:#181818;stroke-width:0.5;" width="4" x="642.1387" y="450"/><text fill="#000000" font-family="sans-serif" font-size="14" lengthAdjust="spacing" textLength="156.6387" x="482.5" y="471.9951">PropertySearchScreen</text></g><!--entity PropertyAPI--><g class="entity" data-entity="PropertyAPI" data-source-line="21" data-uid="ent0013" id="entity_PropertyAPI"><rect fill="#F1F1F1" height="46.2969" rx="2.5" ry="2.5" style="stroke:#181818;stroke-width:0.5;" width="151.5352" x="700" y="439"/><rect fill="#F1F1F1" height="10" style="stroke:#181818;stroke-width:0.5;" width="15" x="831.5352" y="444"/><rect fill="#F1F1F1" height="2" style="stroke:#181818;stroke-width:0.5;" width="4" x="829.5352" y="446"/><rect fill="#F1F1F1" height="2" style="stroke:#181818;stroke-width:0.5;" width="4" x="829.5352" y="450"/><text fill="#000000" font-family="sans-serif" font-size="14" lengthAdjust="spacing" textLength="111.5352" x="715" y="471.9951">PropertyService</text></g><!--entity VisitManagementScreen--><g class="entity" data-entity="VisitManagementScreen" data-source-line="26" data-uid="ent0015" id="entity_VisitManagementScreen"><rect fill="#F1F1F1" height="46.2969" rx="2.5" ry="2.5" style="stroke:#181818;stroke-width:0.5;" width="210.8027" x="1202.5" y="245"/><rect fill="#F1F1F1" height="10" style="stroke:#181818;stroke-width:0.5;" width="15" x="1393.3027" y="250"/><rect fill="#F1F1F1" height="2" style="stroke:#181818;stroke-width:0.5;" width="4" x="1391.3027" y="252"/><rect fill="#F1F1F1" height="2" style="stroke:#181818;stroke-width:0.5;" width="4" x="1391.3027" y="256"/><text fill="#000000" font-family="sans-serif" font-size="14" lengthAdjust="spacing" textLength="170.8027" x="1217.5" y="277.9951">VisitManagementScreen</text></g><!--entity VisitAPI--><g class="entity" data-entity="VisitAPI" data-source-line="27" data-uid="ent0016" id="entity_VisitAPI"><rect fill="#F1F1F1" height="46.2969" rx="2.5" ry="2.5" style="stroke:#181818;stroke-width:0.5;" width="121.8809" x="1045" y="245"/><rect fill="#F1F1F1" height="10" style="stroke:#181818;stroke-width:0.5;" width="15" x="1146.8809" y="250"/><rect fill="#F1F1F1" height="2" style="stroke:#181818;stroke-width:0.5;" width="4" x="1144.8809" y="252"/><rect fill="#F1F1F1" height="2" style="stroke:#181818;stroke-width:0.5;" width="4" x="1144.8809" y="256"/><text fill="#000000" font-family="sans-serif" font-size="14" lengthAdjust="spacing" textLength="81.8809" x="1060" y="277.9951">VisitService</text></g><!--entity ClientManagementScreen--><g class="entity" data-entity="ClientManagementScreen" data-source-line="32" data-uid="ent0018" id="entity_ClientManagementScreen"><rect fill="#F1F1F1" height="46.2969" rx="2.5" ry="2.5" style="stroke:#181818;stroke-width:0.5;" width="221.1934" x="2130.5" y="245"/><rect fill="#F1F1F1" height="10" style="stroke:#181818;stroke-width:0.5;" width="15" x="2331.6934" y="250"/><rect fill="#F1F1F1" height="2" style="stroke:#181818;stroke-width:0.5;" width="4" x="2329.6934" y="252"/><rect fill="#F1F1F1" height="2" style="stroke:#181818;stroke-width:0.5;" width="4" x="2329.6934" y="256"/><text fill="#000000" font-family="sans-serif" font-size="14" lengthAdjust="spacing" textLength="181.1934" x="2145.5" y="277.9951">ClientManagementScreen</text></g><!--entity ClientAPI--><g class="entity" data-entity="ClientAPI" data-source-line="33" data-uid="ent0019" id="entity_ClientAPI"><rect fill="#F1F1F1" height="46.2969" rx="2.5" ry="2.5" style="stroke:#181818;stroke-width:0.5;" width="132.2715" x="1963" y="245"/><rect fill="#F1F1F1" height="10" style="stroke:#181818;stroke-width:0.5;" width="15" x="2075.2715" y="250"/><rect fill="#F1F1F1" height="2" style="stroke:#181818;stroke-width:0.5;" width="4" x="2073.2715" y="252"/><rect fill="#F1F1F1" height="2" style="stroke:#181818;stroke-width:0.5;" width="4" x="2073.2715" y="256"/><text fill="#000000" font-family="sans-serif" font-size="14" lengthAdjust="spacing" textLength="92.2715" x="1978" y="277.9951">ClientService</text></g><!--entity Components--><g class="entity" data-entity="Components" data-source-line="38" data-uid="ent0021" id="entity_Components"><rect fill="#F1F1F1" height="46.2969" rx="2.5" ry="2.5" style="stroke:#181818;stroke-width:0.5;" width="128.5732" x="1026.5" y="439"/><rect fill="#F1F1F1" height="10" style="stroke:#181818;stroke-width:0.5;" width="15" x="1135.0732" y="444"/><rect fill="#F1F1F1" height="2" style="stroke:#181818;stroke-width:0.5;" width="4" x="1133.0732" y="446"/><rect fill="#F1F1F1" height="2" style="stroke:#181818;stroke-width:0.5;" width="4" x="1133.0732" y="450"/><text fill="#000000" font-family="sans-serif" font-size="14" lengthAdjust="spacing" textLength="88.5732" x="1041.5" y="471.9951">Components</text></g><!--entity Utils--><g class="entity" data-entity="Utils" data-source-line="39" data-uid="ent0022" id="entity_Utils"><rect fill="#F1F1F1" height="46.2969" rx="2.5" ry="2.5" style="stroke:#181818;stroke-width:0.5;" width="70.8096" x="1190.5" y="439"/><rect fill="#F1F1F1" height="10" style="stroke:#181818;stroke-width:0.5;" width="15" x="1241.3096" y="444"/><rect fill="#F1F1F1" height="2" style="stroke:#181818;stroke-width:0.5;" width="4" x="1239.3096" y="446"/><rect fill="#F1F1F1" height="2" style="stroke:#181818;stroke-width:0.5;" width="4" x="1239.3096" y="450"/><text fill="#000000" font-family="sans-serif" font-size="14" lengthAdjust="spacing" textLength="30.8096" x="1205.5" y="471.9951">Utils</text></g><!--entity Types--><g class="entity" data-entity="Types" data-source-line="40" data-uid="ent0023" id="entity_Types"><rect fill="#F1F1F1" height="46.2969" rx="2.5" ry="2.5" style="stroke:#181818;stroke-width:0.5;" width="81.6309" x="1050" y="564"/><rect fill="#F1F1F1" height="10" style="stroke:#181818;stroke-width:0.5;" width="15" x="1111.6309" y="569"/><rect fill="#F1F1F1" height="2" style="stroke:#181818;stroke-width:0.5;" width="4" x="1109.6309" y="571"/><rect fill="#F1F1F1" height="2" style="stroke:#181818;stroke-width:0.5;" width="4" x="1109.6309" y="575"/><text fill="#000000" font-family="sans-serif" font-size="14" lengthAdjust="spacing" textLength="41.6309" x="1065" y="596.9951">Types</text></g><!--entity Assets--><g class="entity" data-entity="Assets" data-source-line="41" data-uid="ent0024" id="entity_Assets"><rect fill="#F1F1F1" height="46.2969" rx="2.5" ry="2.5" style="stroke:#181818;stroke-width:0.5;" width="85.5615" x="1167" y="564"/><rect fill="#F1F1F1" height="10" style="stroke:#181818;stroke-width:0.5;" width="15" x="1232.5615" y="569"/><rect fill="#F1F1F1" height="2" style="stroke:#181818;stroke-width:0.5;" width="4" x="1230.5615" y="571"/><rect fill="#F1F1F1" height="2" style="stroke:#181818;stroke-width:0.5;" width="4" x="1230.5615" y="575"/><text fill="#000000" font-family="sans-serif" font-size="14" lengthAdjust="spacing" textLength="45.5615" x="1182" y="596.9951">Assets</text></g><!--entity HttpClient--><g class="entity" data-entity="HttpClient" data-source-line="46" data-uid="ent0026" id="entity_HttpClient"><rect fill="#F1F1F1" height="46.2969" rx="2.5" ry="2.5" style="stroke:#181818;stroke-width:0.5;" width="110.9229" x="1440.5" y="439"/><rect fill="#F1F1F1" height="10" style="stroke:#181818;stroke-width:0.5;" width="15" x="1531.4229" y="444"/><rect fill="#F1F1F1" height="2" style="stroke:#181818;stroke-width:0.5;" width="4" x="1529.4229" y="446"/><rect fill="#F1F1F1" height="2" style="stroke:#181818;stroke-width:0.5;" width="4" x="1529.4229" y="450"/><text fill="#000000" font-family="sans-serif" font-size="14" lengthAdjust="spacing" textLength="70.9229" x="1455.5" y="471.9951">HttpClient</text></g><!--entity ApiConfig--><g class="entity" data-entity="ApiConfig" data-source-line="47" data-uid="ent0027" id="entity_ApiConfig"><rect fill="#F1F1F1" height="46.2969" rx="2.5" ry="2.5" style="stroke:#181818;stroke-width:0.5;" width="107.2725" x="1586.5" y="439"/><rect fill="#F1F1F1" height="10" style="stroke:#181818;stroke-width:0.5;" width="15" x="1673.7725" y="444"/><rect fill="#F1F1F1" height="2" style="stroke:#181818;stroke-width:0.5;" width="4" x="1671.7725" y="446"/><rect fill="#F1F1F1" height="2" style="stroke:#181818;stroke-width:0.5;" width="4" x="1671.7725" y="450"/><text fill="#000000" font-family="sans-serif" font-size="14" lengthAdjust="spacing" textLength="67.2725" x="1601.5" y="471.9951">ApiConfig</text></g><!--entity Interceptors--><g class="entity" data-entity="Interceptors" data-source-line="48" data-uid="ent0028" id="entity_Interceptors"><rect fill="#F1F1F1" height="46.2969" rx="2.5" ry="2.5" style="stroke:#181818;stroke-width:0.5;" width="125.1621" x="1441.5" y="564"/><rect fill="#F1F1F1" height="10" style="stroke:#181818;stroke-width:0.5;" width="15" x="1546.6621" y="569"/><rect fill="#F1F1F1" height="2" style="stroke:#181818;stroke-width:0.5;" width="4" x="1544.6621" y="571"/><rect fill="#F1F1F1" height="2" style="stroke:#181818;stroke-width:0.5;" width="4" x="1544.6621" y="575"/><text fill="#000000" font-family="sans-serif" font-size="14" lengthAdjust="spacing" textLength="85.1621" x="1456.5" y="596.9951">Interceptors</text></g><g class="entity" data-entity="note" data-source-line="63" data-uid="ent0037" id="entity_note"><path d="M409,45 L409,130.6641 L800.7983,130.6641 L800.7983,55 L790.7983,45 L409,45" fill="#FEFFDD" style="stroke:#181818;stroke-width:0.5;"/><path d="M790.7983,45 L790.7983,55 L800.7983,55 L790.7983,45" fill="#FEFFDD" style="stroke:#181818;stroke-width:1;"/><text fill="#000000" font-family="sans-serif" font-size="13" lengthAdjust="spacing" textLength="172.3896" x="415" y="62.0669">Estrutura atual do projeto:</text><text fill="#000000" font-family="sans-serif" font-size="13" lengthAdjust="spacing" textLength="205.2261" x="415" y="77.1997">- Implementando: Auth e Home</text><text fill="#000000" font-family="sans-serif" font-size="13" lengthAdjust="spacing" textLength="250.6816" x="415" y="92.3325">- Planejado: Properties, Visits e Clients</text><text fill="#000000" font-family="sans-serif" font-size="13" lengthAdjust="spacing" textLength="232.4004" x="415" y="107.4653">- Usando React + TypeScript + Vite</text><text fill="#000000" font-family="sans-serif" font-size="13" lengthAdjust="spacing" textLength="370.7983" x="415" y="122.5981">- Services s&#227;o respons&#225;veis pela comunica&#231;&#227;o com a API</text></g><!--link Auth to API--><g class="link" data-entity-1="Auth" data-entity-2="API" data-source-line="52" data-uid="lnk29" id="link_Auth_API"><path d="M382.088,119.6651 C382.163,119.8003 382.2387,119.9352 382.3152,120.0697 C384.7606,124.3725 387.92,128.2525 392,131 C483.02,192.31 2290.17,91.64 2367,170 C2417.1,221.09 2416.23,279.07 2367,331 C2331.25,368.71 1951.93,354.17 1900,356 C1886.81,356.46 1435.16,355.58 1425,364 C1420.83,367.4563 1417.3834,371.5306 1414.5454,376.0187 C1413.8359,377.1407 1413.1644,378.2885 1412.5292,379.4591 C1412.4498,379.6054 1415.1907,374.4559 1415.1124,374.603" fill="none" id="Auth-to-API" style="stroke:#181818;stroke-width:1;stroke-dasharray:7.0,7.0;"/><polygon fill="#181818" points="1412.2927,379.8991,1420.0531,373.8347,1414.6425,375.4856,1412.9916,370.0751,1412.2927,379.8991" style="stroke:#181818;stroke-width:1;"/><text fill="#000000" font-family="sans-serif" font-size="13" lengthAdjust="spacing" textLength="38.8857" x="2405" y="272.5669">&#171;usa&#187;</text></g><!--link Home to Common--><g class="link" data-entity-1="Home" data-entity-2="Common" data-source-line="53" data-uid="lnk30" id="link_Home_Common"><path d="M1477.9464,283.1299 C1477.8361,283.3053 1477.7248,283.4818 1477.6124,283.6593 C1477.1629,284.3696 1476.6966,285.0965 1476.2139,285.8382 C1474.2828,288.8048 1472.0881,292.0059 1469.65,295.3063 C1459.8975,308.5075 1446.25,323.295 1430,331 C1413.72,338.72 1280.43,325.95 1268,339 C1262.79,344.47 1264.73,349.19 1268,356 C1270.47,361.13 1275.05,359.13 1278,364 C1280.8013,368.6225 1283.2008,373.5761 1285.255,378.7093 C1285.3834,379.0301 1283.3296,396.0589 1283.4553,396.3811" fill="none" id="Home-to-Common" style="stroke:#181818;stroke-width:1;stroke-dasharray:7.0,7.0;"/><polygon fill="#181818" points="1285.6362,401.9707,1286.0913,392.1324,1283.8188,397.3127,1278.6385,395.0402,1285.6362,401.9707" style="stroke:#181818;stroke-width:1;"/><text fill="#000000" font-family="sans-serif" font-size="13" lengthAdjust="spacing" textLength="38.8857" x="1269" y="352.0669">&#171;usa&#187;</text></g><!--link Properties to Common--><g class="link" data-entity-1="Properties" data-entity-2="Common" data-source-line="54" data-uid="lnk31" id="link_Properties_Common"><path d="M962.1108,288.2013 C962.1564,288.2946 962.2021,288.3881 962.2481,288.4818 C962.34,288.6692 962.4327,288.8573 962.5261,289.0462 C963.2734,290.5575 964.0686,292.1159 964.9113,293.7075 C971.6525,306.44 981.43,321.29 994,331 C1022.14,352.74 1035,349.7 1070,356 C1081.38,358.05 1269.21,356.48 1278,364 C1282.1063,367.515 1285.4897,371.6336 1288.266,376.154 C1288.9601,377.2841 1286.8202,395.4275 1287.4402,396.6047" fill="none" id="Properties-to-Common" style="stroke:#181818;stroke-width:1;stroke-dasharray:7.0,7.0;"/><polygon fill="#181818" points="1290.2362,401.9134,1289.5814,392.0863,1287.9062,397.4895,1282.5031,395.8143,1290.2362,401.9134" style="stroke:#181818;stroke-width:1;"/><text fill="#000000" font-family="sans-serif" font-size="13" lengthAdjust="spacing" textLength="38.8857" x="1071" y="352.0669">&#171;usa&#187;</text></g><!--link Properties to API--><g class="link" data-entity-1="Properties" data-entity-2="API" data-source-line="55" data-uid="lnk32" id="link_Properties_API"><path d="M962.0308,291.2914 C962.0758,291.3912 962.1211,291.4911 962.1665,291.5911 C962.3482,291.9914 962.5332,292.394 962.7214,292.7987 C963.0979,293.6081 963.4873,294.4259 963.89,295.25 C970.3325,308.435 980.15,323.225 994,331 C1024.82,348.3 1280.53,322.92 1312,339 C1341.885,354.265 1364.88,384.0575 1380.5288,410.3787 C1384.4409,416.9591 1387.894,423.3224 1390.8808,429.1876 C1392.3742,432.1202 1393.751,434.9282 1395.0103,437.5766 C1395.64,438.9007 1393.7312,434.7348 1394.302,435.9748" fill="none" id="Properties-to-API" style="stroke:#181818;stroke-width:1;stroke-dasharray:7.0,7.0;"/><polygon fill="#181818" points="1396.8112,441.4249,1396.6809,431.5769,1394.7202,436.8831,1389.414,434.9225,1396.8112,441.4249" style="stroke:#181818;stroke-width:1;"/><text fill="#000000" font-family="sans-serif" font-size="13" lengthAdjust="spacing" textLength="38.8857" x="1336" y="352.0669">&#171;usa&#187;</text></g><!--link Visits to Common--><g class="link" data-entity-1="Visits" data-entity-2="Common" data-source-line="56" data-uid="lnk33" id="link_Visits_Common"><path d="M1017.2609,315.1759 C1017.3065,315.2755 1017.3523,315.3749 1017.3984,315.4741 C1017.5829,315.8713 1017.7717,316.2661 1017.965,316.6584 C1018.3517,317.4431 1018.7563,318.2178 1019.1796,318.9804 C1020.0263,320.5058 1020.948,321.9833 1021.9513,323.3975 C1023.9577,326.2259 1026.29,328.8013 1029,331 C1044.42,343.51 1098.31,336.41 1118,339 C1161.83,344.76 1172.29,349.39 1216,356 C1229.74,358.08 1267.86,354.5 1278,364 C1281.945,367.6962 1285.2069,371.9516 1287.894,376.5724 C1288.2299,377.15 1288.5568,377.7333 1288.8749,378.3219 C1289.034,378.6163 1289.1909,378.9119 1289.3456,379.2089 C1289.423,379.3573 1286.7672,396.4614 1286.8435,396.6105" fill="none" id="Visits-to-Common" style="stroke:#181818;stroke-width:1;stroke-dasharray:7.0,7.0;"/><polygon fill="#181818" points="1289.5761,401.9521,1289.0383,392.1179,1287.2989,397.5007,1281.9161,395.7613,1289.5761,401.9521" style="stroke:#181818;stroke-width:1;"/><text fill="#000000" font-family="sans-serif" font-size="13" lengthAdjust="spacing" textLength="38.8857" x="1217" y="352.0669">&#171;usa&#187;</text></g><!--link Visits to API--><g class="link" data-entity-1="Visits" data-entity-2="API" data-source-line="57" data-uid="lnk34" id="link_Visits_API"><path d="M1016.879,315.1909 C1016.9701,315.3893 1017.0623,315.587 1017.1556,315.7842 C1017.3422,316.1785 1017.5335,316.5703 1017.7294,316.9593 C1018.1211,317.7374 1018.5316,318.5045 1018.9617,319.2586 C1019.8218,320.7669 1020.7601,322.2232 1021.7835,323.6116 C1023.8303,326.3884 1026.2175,328.8938 1029,331 C1045.09,343.17 1377.15,325.35 1392,339 C1401.88,348.0825 1407.6844,360.0831 1410.8208,373.0156 C1411.2128,374.6322 1411.5632,376.2633 1411.8746,377.9051 C1411.9525,378.3156 1412.0279,378.7267 1412.1009,379.1384 C1412.1374,379.3443 1411.16,373.6365 1411.1953,373.8426" fill="none" id="Visits-to-API" style="stroke:#181818;stroke-width:1;stroke-dasharray:7.0,7.0;"/><polygon fill="#181818" points="1412.2087,379.7564,1414.6312,370.2102,1411.3642,374.8283,1406.7461,371.5613,1412.2087,379.7564" style="stroke:#181818;stroke-width:1;"/><text fill="#000000" font-family="sans-serif" font-size="13" lengthAdjust="spacing" textLength="38.8857" x="1404" y="352.0669">&#171;usa&#187;</text></g><!--link Clients to Common--><g class="link" data-entity-1="Clients" data-entity-2="Common" data-source-line="58" data-uid="lnk35" id="link_Clients_Common"><path d="M1919.9987,283.2354 C1919.8889,283.4119 1919.7781,283.5894 1919.6662,283.7681 C1919.2187,284.4825 1918.7543,285.2137 1918.2734,285.9595 C1916.35,288.9426 1914.1625,292.1591 1911.73,295.4713 C1902,308.72 1888.35,323.5 1872,331 C1855.08,338.76 1555.5,336.97 1537,339 C1498.27,343.26 1489.45,349.73 1451,356 C1423.58,360.47 1413.77,351.41 1389,364 C1362.93,377.245 1340.235,400.95 1323.9088,421.61 C1319.8272,426.775 1316.1437,431.7497 1312.905,436.323 C1311.2856,438.6097 1309.7775,440.7961 1308.3864,442.8557 C1307.6909,443.8855 1307.0246,444.8837 1306.3883,445.8468 C1306.0702,446.3284 1305.7595,446.8013 1305.4565,447.265 C1305.3049,447.4968 1308.4257,442.696 1308.278,442.9232" fill="none" id="Clients-to-Common" style="stroke:#181818;stroke-width:1;stroke-dasharray:7.0,7.0;"/><polygon fill="#181818" points="1305.0076,447.9536,1313.2668,442.5883,1307.7329,443.7616,1306.5597,438.2278,1305.0076,447.9536" style="stroke:#181818;stroke-width:1;"/><text fill="#000000" font-family="sans-serif" font-size="13" lengthAdjust="spacing" textLength="38.8857" x="1538" y="352.0669">&#171;usa&#187;</text></g><!--link Clients to API--><g class="link" data-entity-1="Clients" data-entity-2="API" data-source-line="59" data-uid="lnk36" id="link_Clients_API"><path d="M1919.8723,282.975 C1919.7613,283.1488 1919.6492,283.3237 1919.5361,283.4997 C1919.0836,284.2036 1918.6143,284.9243 1918.1286,285.6598 C1916.1859,288.6017 1913.9803,291.78 1911.5338,295.0625 C1901.7475,308.1925 1888.105,322.99 1872,331 C1757.36,388.02 1712.74,347.25 1585,356 C1567.24,357.22 1438.51,352.41 1425,364 C1420.8875,367.525 1417.4842,371.6511 1414.6779,376.177 C1413.9763,377.3085 1416.1366,373.1713 1415.5079,374.3497" fill="none" id="Clients-to-API" style="stroke:#181818;stroke-width:1;stroke-dasharray:7.0,7.0;"/><polygon fill="#181818" points="1412.6833,379.6432,1420.4492,373.5859,1415.0371,375.2319,1413.3911,369.8198,1412.6833,379.6432" style="stroke:#181818;stroke-width:1;"/><text fill="#000000" font-family="sans-serif" font-size="13" lengthAdjust="spacing" textLength="38.8857" x="1853" y="352.0669">&#171;usa&#187;</text></g><!--SRC=[ZLJ1Rjim3BtxAuXUsc5jFo0e0WJ9XWROqA1PUnboO6KsKMjBWYG7A8PzJB53WLtt2VwnKP8zEvqAz6IHJ-GZgMSUmqBYrcADK1AiK6XF3ixWQeSMOLctV_Oa7NosMdbIPL4STvV2TMpOvwN0zgNzfGk3uX6t14Upnk-EuEBYdj0tbgPJ-540VF-YjrAjXILIcs1VqrOwJtRa2f5hidifQ0Fe8DYprRBuEI8sLYeX3LO3uQMkAKCOtAFamPphscZ5LRlDGLBkHlRDdfWA5JrWgJyC52kh3LaloMM8El3fAog-N7Fw4MqFBiYZh5m6MHDQiSi2moXwt-jnSELxwQJ7Dmg_3M2kw0XaAux8c3iwCiIYaXn9Rp3F8vgZJaYMEq5ZykHvpIvqtTHm8lht97SABaIrBvgFZPULzEspbTgDIz9rhLMeoB70gVnNq4WMRDvmT3fzUpAKJZFdAAEQKDSW_DNo_zoNtflKGyfZv5ohUxcDrf8hjuACrxRFlI33VrhxcqNEtNEOPSsd7xC8_mESdqy3BKoOgd4udHP1sT6T-XiXWspVXH-cJTB91uwmmw3krVDHO_0mZ1k_kWiFc9O9E7t7VPFpjc7bOA72l7aUuSk3-zG3mCB22ahDUq4_aDSJHizuSvagIWjLgITnZm11c5E4LxrS9p1Cu1IwfgZJd8jtRrp80TU4miD728fWlKeJZ5lfKy9Ei0vSADwIOpcvzZdk4qCLHhsgVbK62p1gXvywzlGN]--></g></svg>