<svg id="e2D3RjwoiTx1" xmlns="http://www.w3.org/2000/svg" xmlns:xlink="http://www.w3.org/1999/xlink" viewBox="0 0 1251 933" shape-rendering="geometricPrecision" text-rendering="geometricPrecision" project-id="2686e10c5f1949d3847265f8024a0f13" export-id="0414f04c0b514e088d7b3b08c35de4f2" cached="false" style="background-color:#fff"><g transform="translate(0-.5)"><g><rect width="864" height="920" rx="2.5" ry="2.5" transform="translate(381 7)" fill="none" stroke="#181818"/><text dx="0" dy="0" font-family="sans-serif" font-size="14" font-weight="700" transform="translate(736.5435 21.9951)"><![CDATA[
Sistema Imobiliário
]]></text></g><g><rect width="760.5" height="253" rx="2.5" ry="2.5" transform="translate(460.5 50)" fill="none" stroke="#181818"/><text dx="0" dy="0" font-family="sans-serif" font-size="14" font-weight="700" transform="translate(788.0894 64.9951)"><![CDATA[
Propriedades
]]></text></g><g transform="translate(263.75 6.06)"><rect width="252" height="182" rx="2.5" ry="2.5" transform="translate(451 327)" fill="none" stroke="#181818"/><text dx="0" dy="0" font-family="sans-serif" font-size="14" font-weight="700" transform="translate(550.3809 341.9951)"><tspan font-family="sans-serif" font-size="14" font-weight="700" font-style="normal" transform="translate(550.3809 341.9951)"><![CDATA[
Visitas
]]></tspan></text></g><g transform="translate(263.498 8.099342)"><rect width="265" height="182" rx="2.5" ry="2.5" transform="translate(444.5 533)" fill="none" stroke="#181818"/><text dx="0" dy="0" font-family="sans-serif" font-size="14" font-weight="700" transform="translate(542.6152 547.9951)"><![CDATA[
Usuários
]]></text></g><g transform="translate(263.44894 18.518338)"><path d="M397,733.5v70.5313h360.0601v-60.5313l-10-10L397,733.5" fill="#feffdd" stroke="#181818" stroke-width="0.5"/><path d="M747.0601,733.5v10h10l-10-10" fill="#feffdd" stroke="#181818"/><text dx="0" dy="0" font-family="sans-serif" font-size="13" font-weight="700" transform="translate(403 750.5669)"><![CDATA[
Convenção de Nomenclatura:
]]></text><text dx="0" dy="0" font-family="sans-serif" font-size="13" font-weight="400" transform="translate(403 765.6997)"><![CDATA[
O termo "
]]></text><text dx="0" dy="0" font-family="sans-serif" font-size="13" font-weight="700" transform="translate(466.5337 765.6997)"><![CDATA[
Gerenciar
]]></text><text dx="0" dy="0" font-family="sans-serif" font-size="13" font-weight="400" transform="translate(537.8496 765.6997)"><![CDATA[
" nos casos de uso refere-se ao
]]></text><text dx="0" dy="0" font-family="sans-serif" font-size="13" font-weight="400" transform="translate(403 780.8325)"><![CDATA[
conjunto completo de operações CRUD:
]]></text><text dx="0" dy="0" font-family="sans-serif" font-size="13" font-weight="400" transform="translate(403 795.9653)"><![CDATA[
(Cadastrar, Consultar, Alterar e Excluir).
]]></text></g><g transform="translate(262.506658-1.410094)"><path d="M403.5,839.5v70.5313h347.3647v-60.5313l-10-10h-337.3647" fill="#feffdd" stroke="#181818" stroke-width="0.5"/><path d="M740.8647,839.5v10h10l-10-10" fill="#feffdd" stroke="#181818"/><text dx="0" dy="0" font-family="sans-serif" font-size="13" font-weight="700" transform="translate(409.5 856.5669)"><tspan font-family="sans-serif" font-size="13" font-weight="700" font-style="normal" transform="translate(409.5 856.5669)"><![CDATA[
Requisito de Autenticação:
]]></tspan></text><text dx="0" dy="0" font-family="sans-serif" font-size="13" font-weight="400" transform="translate(409.5 871.6997)"><![CDATA[
A funcionalidade "Buscar Propriedades" é pública.
]]></text><text dx="0" dy="0" font-family="sans-serif" font-size="13" font-weight="400" transform="translate(409.5 886.8325)"><![CDATA[
Todas as outras funcionalidades exigem que o
]]></text><text dx="0" dy="0" font-family="sans-serif" font-size="13" font-weight="400" transform="translate(409.5 901.9653)"><![CDATA[
usuário esteja devidamente autenticado.
]]></text></g><g><ellipse rx="91.187" ry="20.6374" transform="translate(577.187 266.137)" fill="#f1f1f1" stroke="#181818" stroke-width="0.5"/><text dx="0" dy="0" font-family="sans-serif" font-size="14" font-weight="400" transform="translate(504.9756 268.9841)"><![CDATA[
Buscar Propriedades
]]></text></g><g><ellipse rx="100.539" ry="22.5078" transform="translate(577.039 108.008)" fill="#f1f1f1" stroke="#181818" stroke-width="0.5"/><text dx="0" dy="0" font-family="sans-serif" font-size="14" font-weight="400" transform="translate(494.4166 110.8545)"><![CDATA[
Gerenciar Propriedades
]]></text></g><g><ellipse rx="162.31" ry="34.8619" transform="translate(1042.31 119.862)" fill="#f1f1f1" stroke="#181818" stroke-width="0.5"/><text dx="0" dy="0" font-family="sans-serif" font-size="14" font-weight="400" transform="translate(894.2978 122.7086)"><![CDATA[
Gerenciar Características de Propriedades
]]></text></g><g transform="translate(.000001 0)"><ellipse rx="99.3203" ry="22.2641" transform="translate(576.820001 187.764)" fill="#f1f1f1" stroke="#181818" stroke-width="0.5"/><text dx="0" dy="0" font-family="sans-serif" font-size="14" font-weight="400" transform="translate(495.541 190.6107)"><![CDATA[
Gerenciar Proprietários
]]></text></g><g transform="translate(263.75 6.06)"><ellipse rx="104.133" ry="23.2266" transform="translate(577.133 385.227)" fill="#f1f1f1" stroke="#181818" stroke-width="0.5"/><text dx="0" dy="0" font-family="sans-serif" font-size="14" font-weight="400" transform="translate(490.5697 388.0733)"><![CDATA[
Gerenciar Minhas Visitas
]]></text></g><g transform="translate(263.563 6.06)"><ellipse rx="109.935" ry="24.387" transform="translate(576.935 467.887)" fill="#f1f1f1" stroke="#181818" stroke-width="0.5"/><text dx="0" dy="0" font-family="sans-serif" font-size="14" font-weight="400" transform="translate(484.0655 470.7337)"><![CDATA[
Gerenciar Todas as Visitas
]]></text></g><g transform="translate(263.498 8.099342)"><ellipse rx="97.4814" ry="21.8963" transform="translate(576.981 589.896)" fill="#f1f1f1" stroke="#181818" stroke-width="0.5"/><text dx="0" dy="0" font-family="sans-serif" font-size="14" font-weight="400" transform="translate(497.7358 592.743)"><![CDATA[
Gerenciar Meus Dados
]]></text></g><g transform="translate(263.498 8.099342)"><ellipse rx="116.652" ry="25.7305" transform="translate(577.152 673.231)" fill="#f1f1f1" stroke="#181818" stroke-width="0.5"/><text dx="0" dy="0" font-family="sans-serif" font-size="14" font-weight="400" transform="translate(477.0537 676.0771)"><![CDATA[
Gerenciar Todos os Usuários
]]></text></g><g><ellipse rx="8" ry="8" transform="translate(309.572 298.5)" fill="#f1f1f1" stroke="#181818" stroke-width="0.5"/><path d="M309.5718,306.5v27m-13-19h26m-13,19l-13,15m13-15l13,15" fill="none" stroke="#181818" stroke-width="0.5"/><text dx="0" dy="0" font-family="sans-serif" font-size="14" font-weight="400" transform="translate(285 362.9951)"><![CDATA[
Cliente
]]></text></g><g><ellipse rx="8" ry="8" transform="translate(195.138 158.5)" fill="#f1f1f1" stroke="#181818" stroke-width="0.5"/><path d="M195.1382,166.5v27m-13-19h26m-13,19l-13,15m13-15l13,15" fill="none" stroke="#181818" stroke-width="0.5"/><text dx="0" dy="0" font-family="sans-serif" font-size="14" font-weight="400" transform="translate(166 222.9951)"><![CDATA[
Corretor
]]></text></g><g><ellipse rx="8" ry="8" transform="translate(55.54 438.5)" fill="#f1f1f1" stroke="#181818" stroke-width="0.5"/><path d="M55.54,446.5v27m-13-19h26m-13,19l-13,15m13-15l13,15" fill="none" stroke="#181818" stroke-width="0.5"/><text dx="0" dy="0" font-family="sans-serif" font-size="14" font-weight="400" transform="translate(6 502.9951)"><![CDATA[
Administrador
]]></text></g><g><path d="M224.1,222.97c18.74,23.32,31.8237,39.6098,49.5537,61.6698" fill="none" stroke="#181818"/><polygon points="284.93,298.67 278.3304,280.8811 268.977,288.3986 284.93,298.67" fill="none" stroke="#181818"/></g><g><path d="M75.19,429.95c26.21-53.38,65.6962-133.7928,92.0062-187.3728" fill="none" stroke="#181818"/><polygon points="175.13,226.42 161.8104,239.9326 172.5819,245.2218 175.13,226.42" fill="none" stroke="#181818"/></g><g><path d="M682.858,110.7148c59.29,1.53,130.112,3.3652,197.932,5.1252" fill="none" stroke="#181818" stroke-dasharray="7,7"/><polygon points="676.86,110.56 685.7538,114.7908 681.8583,110.689 685.9602,106.7935 676.86,110.56" fill="#181818" stroke="#181818"/><text dx="0" dy="0" font-family="sans-serif" font-size="13" font-weight="400" transform="translate(788 110.0669)"><![CDATA[
«extend»
]]></text></g><g><path d="M334.16,321.63c9.29-2.46,20.05-5.24,29.84-7.63c49.13-11.99,99.0509-23.2871,141.0609-32.5571" fill="none" stroke="#181818"/><polygon points="510.92,280.15 501.2695,278.1833 506.0375,281.2274 502.9933,285.9953 510.92,280.15" fill="#181818" stroke="#181818"/></g><g transform="matrix(1.186987-.040554 0.034146 0.999417-73.279503 28.804071)"><path d="M334.06,333.06c37.25,8,105.4337,22.6306,161.8437,34.7406" transform="matrix(2.197075 0.108792-.049456 0.998776-380.237084-53.167347)" fill="none" stroke="#181818"/><polygon points="501.77,369.06 493.8101,363.26 496.8814,368.0105 492.1309,371.0818 501.77,369.06" transform="translate(194.16022 0.962463)" fill="#181818" stroke="#181818"/></g><g><path d="M314.33,366.04c-12.001908,59.415152,33.102727,120.475419,74.530927,157.901764C456.8469,579.892191,660.8269,587.41678,721.563,588.453428" transform="translate(16.0331 6.563877)" fill="none" stroke="#181818"/><polygon points="500.63,576.13 492.9741,569.9342 495.8008,574.8342 490.9009,577.6609 500.63,576.13" transform="translate(241.83065 20.183107)" fill="#181818" stroke="#181818"/></g><g><path d="M224.06,173.69c9.33-4.29,19.91-8.65,29.94-11.69c76.09-23.02,159.504-36.3043,224.754-44.2543" fill="none" stroke="#181818"/><polygon points="484.71,117.02 475.2923,114.1379 479.7467,117.6247 476.2598,122.0791 484.71,117.02" fill="#181818" stroke="#181818"/></g><g><path d="M224.25,188c52.81,0,162.75,0,247.13,0" fill="none" stroke="#181818"/><polygon points="477.38,188 468.38,184 472.38,188 468.38,192 477.38,188" fill="#181818" stroke="#181818"/></g><g><path d="M224.16,159.8C256.7,129.58,296.5718,90.07995,364,80.936926C595.957627,67.561843,794.257919,74.358924,937.517,90.8033" fill="none" stroke="#181818"/><polygon points="943.34,92.25 935.57,86.198 938.4875,91.0444 933.6411,93.9619 943.34,92.25" fill="#181818" stroke="#181818"/></g><g><path d="M88.52651,486.202591c60.67,35.92,409.13264,123.626322,508.44264,158.986322c34.99,12.46,68.70755,21.823827,103.65755,28.803827" transform="translate(16.84349 6.358402)" fill="none" stroke="#181818"/><polygon points="706.60915,674.178913 698.56685,668.493713 701.70595,673.199713 697.00005,676.338813 706.60915,674.178913" transform="translate(14.95385 7.151429)" fill="#181818" stroke="#181818"/></g><g><path d="M105.37,468c82.22,0,507.228,5.5,618.628,5.5" fill="none" stroke="#181818"/><polygon points="466.88,468 457.88,464 461.88,468 457.88,472 466.88,468" transform="translate(263.683 5.5)" fill="#181818" stroke="#181818"/></g></g></svg>
