<svg xmlns="http://www.w3.org/2000/svg" xmlns:xlink="http://www.w3.org/1999/xlink" contentStyleType="text/css" data-diagram-type="SEQUENCE" height="1208.3333px" preserveAspectRatio="none" style="width:1470px;height:1208px;" version="1.1" viewBox="0 0 1470 1208" width="1470.8333px" zoomAndPan="magnify"><title>Diagrama de Sequ&#234;ncia - RF001: Admin Cria um Novo Usu&#225;rio</title><defs><linearGradient id="g1cbvkkyfla2q10" x1="50%" x2="50%" y1="0%" y2="100%"><stop offset="0%" stop-color="#FFFFFF"/><stop offset="100%" stop-color="#FFFFFF"/></linearGradient><filter height="300%" id="f1cbvkkyfla2q1" width="300%" x="-1" y="-1"><feGaussianBlur result="blurOut" stdDeviation="2.0833"/><feColorMatrix in="blurOut" result="blurOut2" type="matrix" values="0 0 0 0 0 0 0 0 0 0 0 0 0 0 0 0 0 0 .4 0"/><feOffset dx="4.1667" dy="4.1667" in="blurOut2" result="blurOut3"/><feBlend in="SourceGraphic" in2="blurOut3" mode="normal"/></filter><linearGradient id="g1cbvkkyfla2q11" x1="50%" x2="50%" y1="0%" y2="100%"><stop offset="0%" stop-color="#4DABF5"/><stop offset="100%" stop-color="#2196F3"/></linearGradient><linearGradient id="g1cbvkkyfla2q12" x1="50%" x2="50%" y1="0%" y2="100%"><stop offset="0%" stop-color="#B052C0"/><stop offset="100%" stop-color="#9C27B0"/></linearGradient></defs><g><rect fill="url(#g1cbvkkyfla2q10)" height="57.5846" rx="4.1667" ry="4.1667" style="stroke:#CCCCCC;stroke-width:1.0417;" width="760.8826" x="364.6194" y="20.8333"/><text fill="#2196F3" font-family="Verdana" font-size="20.8333" font-weight="bold" lengthAdjust="spacing" textLength="727.5492" x="381.2861" y="56.838">Diagrama de Sequ&#234;ncia - RF001: Admin Cria um Novo Usu&#225;rio</text><g><title>&lt;&lt;Controller&gt;&gt;</title><rect fill="#FFFFFF" filter="url(#f1cbvkkyfla2q1)" height="837.9557" style="stroke:#CCCCCC;stroke-width:1.0417;" width="10.4167" x="485.1501" y="243.9779"/></g><g><title>&lt;&lt;Service&gt;&gt;</title><rect fill="#FFFFFF" filter="url(#f1cbvkkyfla2q1)" height="649.5768" style="stroke:#CCCCCC;stroke-width:1.0417;" width="10.4167" x="803.1006" y="293.9453"/></g><g><title>&lt;&lt;Repository&gt;&gt;</title><rect fill="#FFFFFF" filter="url(#f1cbvkkyfla2q1)" height="99.9349" style="stroke:#CCCCCC;stroke-width:1.0417;" width="10.4167" x="1079.8828" y="343.9128"/></g><g><title>&lt;&lt;Repository&gt;&gt;</title><rect fill="#FFFFFF" filter="url(#f1cbvkkyfla2q1)" height="99.9349" style="stroke:#CCCCCC;stroke-width:1.0417;" width="10.4167" x="1079.8828" y="493.8151"/></g><g><title>&lt;&lt;Repository&gt;&gt;</title><rect fill="#FFFFFF" filter="url(#f1cbvkkyfla2q1)" height="49.9674" style="stroke:#CCCCCC;stroke-width:1.0417;" width="10.4167" x="1079.8828" y="643.7174"/></g><g><title>&lt;&lt;Repository&gt;&gt;</title><rect fill="#FFFFFF" filter="url(#f1cbvkkyfla2q1)" height="149.9023" style="stroke:#CCCCCC;stroke-width:1.0417;" width="10.4167" x="1079.8828" y="743.6523"/></g><g><title>Administrador</title><rect fill="#000000" fill-opacity="0.00000" height="908.7565" width="8.3333" x="69.2322" y="191.9271"/><line style="stroke:#CCCCCC;stroke-width:1.0417;stroke-dasharray:5.0,5.0;" x1="72.9167" x2="72.9167" y1="191.9271" y2="1100.6836"/></g><g><title>&lt;&lt;Controller&gt;&gt;</title><rect fill="#000000" fill-opacity="0.00000" height="908.7565" width="8.3333" x="486.1918" y="191.9271"/><line style="stroke:#CCCCCC;stroke-width:1.0417;stroke-dasharray:5.0,5.0;" x1="489.3717" x2="489.3717" y1="191.9271" y2="1100.6836"/></g><g><title>&lt;&lt;Service&gt;&gt;</title><rect fill="#000000" fill-opacity="0.00000" height="908.7565" width="8.3333" x="804.1423" y="191.9271"/><line style="stroke:#CCCCCC;stroke-width:1.0417;stroke-dasharray:5.0,5.0;" x1="807.8125" x2="807.8125" y1="191.9271" y2="1100.6836"/></g><g><title>&lt;&lt;Repository&gt;&gt;</title><rect fill="#000000" fill-opacity="0.00000" height="908.7565" width="8.3333" x="1080.9245" y="191.9271"/><line style="stroke:#CCCCCC;stroke-width:1.0417;stroke-dasharray:5.0,5.0;" x1="1084.727" x2="1084.727" y1="191.9271" y2="1100.6836"/></g><g><title>Banco de Dados</title><rect fill="#000000" fill-opacity="0.00000" height="908.7565" width="8.3333" x="1407.015" y="191.9271"/><line style="stroke:#CCCCCC;stroke-width:1.0417;stroke-dasharray:5.0,5.0;" x1="1410.3668" x2="1410.3668" y1="191.9271" y2="1100.6836"/></g><g class="participant participant-head" data-participant="Admin"><text fill="#222222" font-family="Verdana" font-size="12.5" lengthAdjust="spacing" textLength="88.4644" x="26.0417" y="178.5624">Administrador</text><ellipse cx="73.3988" cy="99.2513" fill="url(#g1cbvkkyfla2q11)" filter="url(#f1cbvkkyfla2q1)" rx="8.3333" ry="8.3333" style="stroke:#2196F3;stroke-width:1.0417;"/><path d="M73.3988,107.5846 L73.3988,135.7096 M59.8572,115.918 L86.9405,115.918 M73.3988,135.7096 L59.8572,151.3346 M73.3988,135.7096 L86.9405,151.3346" fill="none" filter="url(#f1cbvkkyfla2q1)" style="stroke:#2196F3;stroke-width:1.0417;"/></g><g class="participant participant-tail" data-participant="Admin"><text fill="#222222" font-family="Verdana" font-size="12.5" lengthAdjust="spacing" textLength="88.4644" x="26.0417" y="1121.6614">Administrador</text><ellipse cx="73.3988" cy="1144.401" fill="url(#g1cbvkkyfla2q11)" filter="url(#f1cbvkkyfla2q1)" rx="8.3333" ry="8.3333" style="stroke:#2196F3;stroke-width:1.0417;"/><path d="M73.3988,1152.7344 L73.3988,1180.8594 M59.8572,1161.0677 L86.9405,1161.0677 M73.3988,1180.8594 L59.8572,1196.4844 M73.3988,1180.8594 L86.9405,1196.4844" fill="none" filter="url(#f1cbvkkyfla2q1)" style="stroke:#2196F3;stroke-width:1.0417;"/></g><g class="participant participant-head" data-participant="UsersController"><rect fill="url(#g1cbvkkyfla2q11)" filter="url(#f1cbvkkyfla2q1)" height="64.5182" rx="4.1667" ry="4.1667" style="stroke:#2196F3;stroke-width:1.0417;" width="132.1818" x="422.7051" y="123.2422"/><text fill="#FFFFFF" font-family="Verdana" font-size="12.5" lengthAdjust="spacing" textLength="77.0569" x="450.2675" y="152.5533">&#171;Controller&#187;</text><text fill="#FFFFFF" font-family="Verdana" font-size="12.5" lengthAdjust="spacing" textLength="96.7651" x="440.4134" y="167.1041">UsersController</text></g><g class="participant participant-tail" data-participant="UsersController"><rect fill="url(#g1cbvkkyfla2q11)" filter="url(#f1cbvkkyfla2q1)" height="64.5182" rx="4.1667" ry="4.1667" style="stroke:#2196F3;stroke-width:1.0417;" width="132.1818" x="422.7051" y="1099.6419"/><text fill="#FFFFFF" font-family="Verdana" font-size="12.5" lengthAdjust="spacing" textLength="77.0569" x="450.2675" y="1128.953">&#171;Controller&#187;</text><text fill="#FFFFFF" font-family="Verdana" font-size="12.5" lengthAdjust="spacing" textLength="96.7651" x="440.4134" y="1143.5038">UsersController</text></g><g class="participant participant-head" data-participant="UsersService"><rect fill="url(#g1cbvkkyfla2q11)" filter="url(#f1cbvkkyfla2q1)" height="64.5182" rx="4.1667" ry="4.1667" style="stroke:#2196F3;stroke-width:1.0417;" width="116.6178" x="748.4375" y="123.2422"/><text fill="#FFFFFF" font-family="Verdana" font-size="12.5" lengthAdjust="spacing" textLength="61.4929" x="776" y="152.5533">&#171;Service&#187;</text><text fill="#FFFFFF" font-family="Verdana" font-size="12.5" lengthAdjust="spacing" textLength="81.2012" x="766.1458" y="167.1041">UsersService</text></g><g class="participant participant-tail" data-participant="UsersService"><rect fill="url(#g1cbvkkyfla2q11)" filter="url(#f1cbvkkyfla2q1)" height="64.5182" rx="4.1667" ry="4.1667" style="stroke:#2196F3;stroke-width:1.0417;" width="116.6178" x="748.4375" y="1099.6419"/><text fill="#FFFFFF" font-family="Verdana" font-size="12.5" lengthAdjust="spacing" textLength="61.4929" x="776" y="1128.953">&#171;Service&#187;</text><text fill="#FFFFFF" font-family="Verdana" font-size="12.5" lengthAdjust="spacing" textLength="81.2012" x="766.1458" y="1143.5038">UsersService</text></g><g class="participant participant-head" data-participant="UserRepo"><rect fill="url(#g1cbvkkyfla2q11)" filter="url(#f1cbvkkyfla2q1)" height="64.5182" rx="4.1667" ry="4.1667" style="stroke:#2196F3;stroke-width:1.0417;" width="130.9367" x="1018.0603" y="123.2422"/><text fill="#FFFFFF" font-family="Verdana" font-size="12.5" lengthAdjust="spacing" textLength="82.3242" x="1042.3665" y="152.5533">&#171;Repository&#187;</text><text fill="#FFFFFF" font-family="Verdana" font-size="12.5" lengthAdjust="spacing" textLength="95.52" x="1035.7686" y="167.1041">UserRepository</text></g><g class="participant participant-tail" data-participant="UserRepo"><rect fill="url(#g1cbvkkyfla2q11)" filter="url(#f1cbvkkyfla2q1)" height="64.5182" rx="4.1667" ry="4.1667" style="stroke:#2196F3;stroke-width:1.0417;" width="130.9367" x="1018.0603" y="1099.6419"/><text fill="#FFFFFF" font-family="Verdana" font-size="12.5" lengthAdjust="spacing" textLength="82.3242" x="1042.3665" y="1128.953">&#171;Repository&#187;</text><text fill="#FFFFFF" font-family="Verdana" font-size="12.5" lengthAdjust="spacing" textLength="95.52" x="1035.7686" y="1143.5038">UserRepository</text></g><g class="participant participant-head" data-participant="DB"><text fill="#222222" font-family="Verdana" font-size="12.5" lengthAdjust="spacing" textLength="101.6296" x="1357.2418" y="178.5624">Banco de Dados</text><path d="M1392.4316,119.043 C1392.4316,108.6263 1411.1816,108.6263 1411.1816,108.6263 C1411.1816,108.6263 1429.9316,108.6263 1429.9316,119.043 L1429.9316,146.1263 C1429.9316,156.543 1411.1816,156.543 1411.1816,156.543 C1411.1816,156.543 1392.4316,156.543 1392.4316,146.1263 L1392.4316,119.043" fill="url(#g1cbvkkyfla2q11)" filter="url(#f1cbvkkyfla2q1)" style="stroke:#2196F3;stroke-width:1.5625;"/><path d="M1392.4316,119.043 C1392.4316,129.4596 1411.1816,129.4596 1411.1816,129.4596 C1411.1816,129.4596 1429.9316,129.4596 1429.9316,119.043" fill="none" style="stroke:#2196F3;stroke-width:1.5625;"/></g><g class="participant participant-tail" data-participant="DB"><text fill="#222222" font-family="Verdana" font-size="12.5" lengthAdjust="spacing" textLength="101.6296" x="1357.2418" y="1121.6614">Banco de Dados</text><path d="M1392.4316,1145.4427 C1392.4316,1135.026 1411.1816,1135.026 1411.1816,1135.026 C1411.1816,1135.026 1429.9316,1135.026 1429.9316,1145.4427 L1429.9316,1172.526 C1429.9316,1182.9427 1411.1816,1182.9427 1411.1816,1182.9427 C1411.1816,1182.9427 1392.4316,1182.9427 1392.4316,1172.526 L1392.4316,1145.4427" fill="url(#g1cbvkkyfla2q11)" filter="url(#f1cbvkkyfla2q1)" style="stroke:#2196F3;stroke-width:1.5625;"/><path d="M1392.4316,1145.4427 C1392.4316,1155.8594 1411.1816,1155.8594 1411.1816,1155.8594 C1411.1816,1155.8594 1429.9316,1155.8594 1429.9316,1145.4427" fill="none" style="stroke:#2196F3;stroke-width:1.5625;"/></g><g><title>&lt;&lt;Controller&gt;&gt;</title><rect fill="#FFFFFF" filter="url(#f1cbvkkyfla2q1)" height="837.9557" style="stroke:#CCCCCC;stroke-width:1.0417;" width="10.4167" x="485.1501" y="243.9779"/></g><g><title>&lt;&lt;Service&gt;&gt;</title><rect fill="#FFFFFF" filter="url(#f1cbvkkyfla2q1)" height="649.5768" style="stroke:#CCCCCC;stroke-width:1.0417;" width="10.4167" x="803.1006" y="293.9453"/></g><g><title>&lt;&lt;Repository&gt;&gt;</title><rect fill="#FFFFFF" filter="url(#f1cbvkkyfla2q1)" height="99.9349" style="stroke:#CCCCCC;stroke-width:1.0417;" width="10.4167" x="1079.8828" y="343.9128"/></g><g><title>&lt;&lt;Repository&gt;&gt;</title><rect fill="#FFFFFF" filter="url(#f1cbvkkyfla2q1)" height="99.9349" style="stroke:#CCCCCC;stroke-width:1.0417;" width="10.4167" x="1079.8828" y="493.8151"/></g><g><title>&lt;&lt;Repository&gt;&gt;</title><rect fill="#FFFFFF" filter="url(#f1cbvkkyfla2q1)" height="49.9674" style="stroke:#CCCCCC;stroke-width:1.0417;" width="10.4167" x="1079.8828" y="643.7174"/></g><g><title>&lt;&lt;Repository&gt;&gt;</title><rect fill="#FFFFFF" filter="url(#f1cbvkkyfla2q1)" height="149.9023" style="stroke:#CCCCCC;stroke-width:1.0417;" width="10.4167" x="1079.8828" y="743.6523"/></g><g class="message" data-participant-1="Admin" data-participant-2="UsersController"><polygon fill="#2196F3" points="472.6501,239.8112,483.0668,243.9779,472.6501,248.1445,476.8168,243.9779" style="stroke:#2196F3;stroke-width:1.0417;"/><line style="stroke:#2196F3;stroke-width:3.125;" x1="73.3988" x2="478.9001" y1="243.9779" y2="243.9779"/><text fill="#222222" font-family="Verdana" font-size="12.5" lengthAdjust="spacing" textLength="217.926" x="91.1072" y="228.5299">1. POST /users com CreateUserDto</text></g><g class="message" data-participant-1="UsersController" data-participant-2="UsersService"><polygon fill="#2196F3" points="790.6006,289.7786,801.0173,293.9453,790.6006,298.112,794.7673,293.9453" style="stroke:#2196F3;stroke-width:1.0417;"/><line style="stroke:#2196F3;stroke-width:3.125;" x1="495.5668" x2="796.8506" y1="293.9453" y2="293.9453"/><text fill="#222222" font-family="Verdana" font-size="12.5" lengthAdjust="spacing" textLength="86.0901" x="513.2751" y="278.4973">2. create(dto)</text></g><g class="message" data-participant-1="UsersService" data-participant-2="UserRepo"><polygon fill="#2196F3" points="1067.3828,339.7461,1077.7995,343.9128,1067.3828,348.0794,1071.5495,343.9128" style="stroke:#2196F3;stroke-width:1.0417;"/><line style="stroke:#2196F3;stroke-width:3.125;" x1="813.5173" x2="1073.6328" y1="343.9128" y2="343.9128"/><text fill="#222222" font-family="Verdana" font-size="12.5" lengthAdjust="spacing" textLength="203.8635" x="831.2256" y="328.4648">3. findOne({ where: { email } })</text></g><g class="message" data-participant-1="UserRepo" data-participant-2="DB"><polygon fill="#2196F3" points="1398.6816,389.7135,1409.0983,393.8802,1398.6816,398.0469,1402.8483,393.8802" style="stroke:#2196F3;stroke-width:1.0417;"/><line style="stroke:#2196F3;stroke-width:3.125;" x1="1090.2995" x2="1404.9316" y1="393.8802" y2="393.8802"/><text fill="#222222" font-family="Verdana" font-size="12.5" lengthAdjust="spacing" textLength="270.4041" x="1108.0078" y="378.4322">4. SELECT * FROM users WHERE email = ...</text></g><g class="message" data-participant-1="DB" data-participant-2="UserRepo"><polygon fill="#2196F3" points="1096.5495,439.681,1086.1328,443.8477,1096.5495,448.0143,1092.3828,443.8477" style="stroke:#2196F3;stroke-width:1.0417;"/><line style="stroke:#2196F3;stroke-width:3.125;stroke-dasharray:2.0,2.0;" x1="1090.2995" x2="1410.14" y1="443.8477" y2="443.8477"/><text fill="#222222" font-family="Verdana" font-size="12.5" lengthAdjust="spacing" textLength="218.0359" x="1113.2161" y="428.3997">5. Retorna nulo (e-mail n&#227;o existe)</text></g><g class="message" data-participant-1="UsersService" data-participant-2="UserRepo"><polygon fill="#2196F3" points="1067.3828,489.6484,1077.7995,493.8151,1067.3828,497.9818,1071.5495,493.8151" style="stroke:#2196F3;stroke-width:1.0417;"/><line style="stroke:#2196F3;stroke-width:3.125;" x1="813.5173" x2="1073.6328" y1="493.8151" y2="493.8151"/><text fill="#222222" font-family="Verdana" font-size="12.5" lengthAdjust="spacing" textLength="208.5083" x="831.2256" y="478.3671">6. findOne({ where: { phone } })</text></g><g class="message" data-participant-1="UserRepo" data-participant-2="DB"><polygon fill="#2196F3" points="1398.6816,539.6159,1409.0983,543.7826,1398.6816,547.9492,1402.8483,543.7826" style="stroke:#2196F3;stroke-width:1.0417;"/><line style="stroke:#2196F3;stroke-width:3.125;" x1="1090.2995" x2="1404.9316" y1="543.7826" y2="543.7826"/><text fill="#222222" font-family="Verdana" font-size="12.5" lengthAdjust="spacing" textLength="275.0488" x="1108.0078" y="528.3346">7. SELECT * FROM users WHERE phone = ...</text></g><g class="message" data-participant-1="DB" data-participant-2="UserRepo"><polygon fill="#2196F3" points="1096.5495,589.5833,1086.1328,593.75,1096.5495,597.9167,1092.3828,593.75" style="stroke:#2196F3;stroke-width:1.0417;"/><line style="stroke:#2196F3;stroke-width:3.125;stroke-dasharray:2.0,2.0;" x1="1090.2995" x2="1410.14" y1="593.75" y2="593.75"/><text fill="#222222" font-family="Verdana" font-size="12.5" lengthAdjust="spacing" textLength="230.4688" x="1113.2161" y="578.302">8. Retorna nulo (telefone n&#227;o existe)</text></g><g class="message" data-participant-1="UsersService" data-participant-2="UserRepo"><polygon fill="#2196F3" points="1067.3828,639.5508,1077.7995,643.7174,1067.3828,647.8841,1071.5495,643.7174" style="stroke:#2196F3;stroke-width:1.0417;"/><line style="stroke:#2196F3;stroke-width:3.125;" x1="813.5173" x2="1073.6328" y1="643.7174" y2="643.7174"/><text fill="#222222" font-family="Verdana" font-size="12.5" lengthAdjust="spacing" textLength="86.0901" x="831.2256" y="628.2694">9. create(dto)</text></g><g class="message" data-participant-1="UserRepo" data-participant-2="UsersService"><polygon fill="#2196F3" points="824.9756,689.5182,814.5589,693.6849,824.9756,697.8516,820.8089,693.6849" style="stroke:#2196F3;stroke-width:1.0417;"/><line style="stroke:#2196F3;stroke-width:3.125;stroke-dasharray:2.0,2.0;" x1="818.7256" x2="1084.0495" y1="693.6849" y2="693.6849"/><text fill="#222222" font-family="Verdana" font-size="12.5" lengthAdjust="spacing" textLength="220.5322" x="841.6423" y="678.2369">10. Retorna nova inst&#226;ncia de User</text></g><g class="message" data-participant-1="UsersService" data-participant-2="UserRepo"><polygon fill="#2196F3" points="1067.3828,739.4857,1077.7995,743.6523,1067.3828,747.819,1071.5495,743.6523" style="stroke:#2196F3;stroke-width:1.0417;"/><line style="stroke:#2196F3;stroke-width:3.125;" x1="813.5173" x2="1073.6328" y1="743.6523" y2="743.6523"/><text fill="#222222" font-family="Verdana" font-size="12.5" lengthAdjust="spacing" textLength="117.1936" x="831.2256" y="728.2043">11. save(newUser)</text></g><g class="message" data-participant-1="UserRepo" data-participant-2="DB"><polygon fill="#2196F3" points="1398.6816,789.4531,1409.0983,793.6198,1398.6816,797.7865,1402.8483,793.6198" style="stroke:#2196F3;stroke-width:1.0417;"/><line style="stroke:#2196F3;stroke-width:3.125;" x1="1090.2995" x2="1404.9316" y1="793.6198" y2="793.6198"/><text fill="#222222" font-family="Verdana" font-size="12.5" lengthAdjust="spacing" textLength="166.925" x="1108.0078" y="778.1718">12. INSERT INTO users (...)</text></g><g class="message" data-participant-1="DB" data-participant-2="UserRepo"><polygon fill="#2196F3" points="1101.7578,839.4206,1091.3411,843.5872,1101.7578,847.7539,1097.5911,843.5872" style="stroke:#2196F3;stroke-width:1.0417;"/><line style="stroke:#2196F3;stroke-width:3.125;stroke-dasharray:2.0,2.0;" x1="1095.5078" x2="1410.14" y1="843.5872" y2="843.5872"/><text fill="#222222" font-family="Verdana" font-size="12.5" lengthAdjust="spacing" textLength="214.4043" x="1118.4245" y="828.1392">13. Retorna usu&#225;rio criado com ID</text></g><g class="message" data-participant-1="UserRepo" data-participant-2="UsersService"><polygon fill="#2196F3" points="824.9756,889.388,814.5589,893.5547,824.9756,897.7214,820.8089,893.5547" style="stroke:#2196F3;stroke-width:1.0417;"/><line style="stroke:#2196F3;stroke-width:3.125;stroke-dasharray:2.0,2.0;" x1="818.7256" x2="1084.0495" y1="893.5547" y2="893.5547"/><text fill="#222222" font-family="Verdana" font-size="12.5" lengthAdjust="spacing" textLength="168.28" x="841.6423" y="878.1067">14. Retorna User completo</text></g><g class="message" data-participant-1="UsersService" data-participant-2="UsersController"><polygon fill="#2196F3" points="507.0251,939.3555,496.6085,943.5221,507.0251,947.6888,502.8585,943.5221" style="stroke:#2196F3;stroke-width:1.0417;"/><line style="stroke:#2196F3;stroke-width:3.125;stroke-dasharray:2.0,2.0;" x1="500.7751" x2="807.2673" y1="943.5221" y2="943.5221"/><text fill="#222222" font-family="Verdana" font-size="12.5" lengthAdjust="spacing" textLength="261.7004" x="523.6918" y="928.0741">15. Retorna User completo (sem a senha)</text></g><path d="M500,961.2305 L500,1026.8555 A4.1667,4.1667 0 0 0 504.1667,1031.0221 L758.3333,1031.0221 A4.1667,4.1667 0 0 0 762.5,1026.8555 L762.5,967.4805 L752.0833,957.0638 L504.1667,957.0638 A4.1667,4.1667 0 0 0 500,961.2305" fill="url(#g1cbvkkyfla2q12)" filter="url(#f1cbvkkyfla2q1)" style="stroke:#9C27B0;stroke-width:1.0417;"/><path d="M752.0833,957.0638 L752.0833,965.3971 A2.0833,2.0833 0 0 0 754.1667,967.4805 L762.5,967.4805 L752.0833,957.0638" fill="url(#g1cbvkkyfla2q12)" style="stroke:#9C27B0;stroke-width:1.0417;"/><text fill="#FFFFFF" font-family="Verdana" font-size="12.5" lengthAdjust="spacing" textLength="198.1995" x="516.6667" y="984.2916">O Controller remove os campos</text><text fill="#FFFFFF" font-family="Verdana" font-size="12.5" lengthAdjust="spacing" textLength="220.7581" x="516.6667" y="998.8424">sens&#237;veis (password, tokenVersion)</text><text fill="#FFFFFF" font-family="Verdana" font-size="12.5" lengthAdjust="spacing" textLength="183.075" x="516.6667" y="1013.3931">antes de retornar a resposta.</text><g class="message" data-participant-1="UsersController" data-participant-2="Admin"><polygon fill="#2196F3" points="84.8572,1077.7669,74.4405,1081.9336,84.8572,1086.1003,80.6905,1081.9336" style="stroke:#2196F3;stroke-width:1.0417;"/><line style="stroke:#2196F3;stroke-width:3.125;stroke-dasharray:2.0,2.0;" x1="78.6072" x2="489.3168" y1="1081.9336" y2="1081.9336"/><text fill="#222222" font-family="Verdana" font-size="12.5" lengthAdjust="spacing" textLength="365.918" x="101.5238" y="1066.4856">16. Resposta 201 Created com os dados do usu&#225;rio criado</text></g><!--SRC=[hLNRRXCn47tVhnZoGeB8qlG6H6qbsgIY4ZGeIU65bs4zQInsxSLsjg2g7rDuG23n5VjZZ7TpQJTfr0hoadWyStpE6Nloo8qf8KZGaP4O18zX_ry_ZD6HU6umGH040_eooN-hI2Aqsj0_tjXeGHEEKA1rHlkCCpl9hutKa5AiuPL8fFelF08dNKntaMcMNDhbWN34yc6ImAdEz9nH463aj85QaIEPC0fjQe1sIZD5usGaKrGEQdjxHrgnfZWcSt3mKPrPCdOHAiegiIh0W4mc8vfNJzUBqccWMjUdL5l9LB_DIXUHUR4F1G8TVa9BK3j45HN-TrYKBR8wXq5Gsj4yg5A5DhH2UDSR3E7Pn6z1f1EsZVZg-DIEqzujcV5wIMPG1PlXJ_Km-6O8KG5M5qutAb0psNmlUc3z8l-f0S-rGSX_WI6RQcNpwunYIBbX6T_caOpGW9YaCVzWXS6j0wS4l2Ty-5O88wb4Jr7z4Yx6PAWDbq09oXYkuAf2fp1oNir8dKF6s0vXq7tJFHh24pZkzzv2wTA7rzr-Tmgr3s4O1fpTl7tyJWXzubuf13NXDr2dPf6lyXyQw2jVF6e4WkOak4ytLdDAwnJkhbIOZhMYUojylavX2NMNmXTLXOvY6lcAXsfS9_BbcZjKaRHy0LiRDpZg344gw_BlnR0G9SQ3NM_nax6OKLtHXG_Vo-OMFuMJqq6tF-IlOM_gSfsDRQnmjhMre3sPJTA8fvdGnGizwLHSNUl1zWBCRtc4DER0VPIldXaxTo12tL82oAzPZR5HnL-yUAKvPEJvs84UBGqMu7bmupn3YSu8D0ydJ7W0yZxZs_nFHf8jJD7Q2st4Kt3wCwdtZ2MrQd0Mpr6oliscv6gOMJ5LhCCm82N0yrWnnrXqEJ5PwgwNMjR09l_DbSDH56rWIi9F8U2sLDgqf7s1_nS0]--></g></svg>