<svg id="eZVviH7z0E81" xmlns="http://www.w3.org/2000/svg" xmlns:xlink="http://www.w3.org/1999/xlink" viewBox="0 0 2242 883" shape-rendering="geometricPrecision" text-rendering="geometricPrecision" project-id="cacc8edb6e6d4e5eb63547b593c93ba5" export-id="e7dab4f01a4f4e1891961b1085ac1157" cached="false" style="background-color:#fff"><g transform="translate(.767284 0.5)"><g><path d="M65.015,310h38.4609c1.198531.363559,2.136441,1.301469,2.5,2.5l7,19.7969h317.0391c1.380712,0,2.5,1.119288,2.5,2.5v320.7031c0,1.380712-1.119288,2.5-2.5,2.5h-365c-1.380712,0-2.5-1.119288-2.5-2.5v-343c0-1.380712,1.119288-2.5,2.5-2.5" fill="none" stroke="#000" stroke-width="1.5"/><line x1="62.515" y1="332.2969" x2="112.9759" y2="332.2969" stroke="#000" stroke-width="1.5"/><text dx="0" dy="0" font-family="sans-serif" font-size="14" font-weight="700" transform="translate(66.515 324.9951)"><![CDATA[
Auth
]]></text><text dx="0" dy="0" font-family="sans-serif" font-size="14" font-weight="400" font-style="italic" transform="translate(176.9623 347.292)"><![CDATA[
«application service»
]]></text></g><g><path d="M475.015,486h45.4336c1.198531.363559,2.136441,1.301469,2.5,2.5l7,19.7969h453.0664c1.380712,0,2.5,1.119288,2.5,2.5v168.7031c0,1.380712-1.119288,2.5-2.5,2.5h-508c-1.380712,0-2.5-1.119288-2.5-2.5v-191c0-1.380712,1.119288-2.5,2.5-2.5" fill="none" stroke="#000" stroke-width="1.5"/><line x1="472.515" y1="508.2969" x2="529.9486" y2="508.2969" stroke="#000" stroke-width="1.5"/><text dx="0" dy="0" font-family="sans-serif" font-size="14" font-weight="700" transform="translate(476.515 500.9951)"><![CDATA[
Users
]]></text><text dx="0" dy="0" font-family="sans-serif" font-size="14" font-weight="400" font-style="italic" transform="translate(670.8592 523.292)"><![CDATA[
«domain service»
]]></text></g><g><path d="M852.015,553h47.7715c1.198531.363559,2.136441,1.301469,2.5,2.5l7,19.7969h41.7285c1.380712,0,2.5,1.119288,2.5,2.5v69.7031c0,1.380712-1.119288,2.5-2.5,2.5h-99c-1.380712,0-2.5-1.119288-2.5-2.5v-92c0-1.380712,1.119288-2.5,2.5-2.5" fill="none" stroke="#000" stroke-width="1.5"/><line x1="849.515" y1="575.2969" x2="909.2865" y2="575.2969" stroke="#000" stroke-width="1.5"/><text dx="0" dy="0" font-family="sans-serif" font-size="14" font-weight="700" transform="translate(853.515 567.9951)"><![CDATA[
entity
]]></text></g><g><path d="M1185.015,267h83.5234c1.198531.363559,2.136441,1.301469,2.5,2.5l7,19.7969h794.9766c1.380712,0,2.5,1.119288,2.5,2.5v387.7031c0,1.380712-1.119288,2.5-2.5,2.5h-888c-1.380712,0-2.5-1.119288-2.5-2.5v-410c0-1.380712,1.119288-2.5,2.5-2.5" fill="none" stroke="#000" stroke-width="1.5"/><line x1="1182.515" y1="289.2969" x2="1278.0384" y2="289.2969" stroke="#000" stroke-width="1.5"/><text dx="0" dy="0" font-family="sans-serif" font-size="14" font-weight="700" transform="translate(1186.515 281.9951)"><![CDATA[
Properties
]]></text><text dx="0" dy="0" font-family="sans-serif" font-size="14" font-weight="400" font-style="italic" transform="translate(1570.8592 304.292)"><![CDATA[
«domain service»
]]></text></g><g><path d="M1604.015,334h47.7715c1.198531.363559,2.136441,1.301469,2.5,2.5l7,19.7969h379.7285c1.380712,0,2.5,1.119288,2.5,2.5v288.7031c0,1.380712-1.119288,2.5-2.5,2.5h-437c-1.380712,0-2.5-1.119288-2.5-2.5v-311c0-1.380712,1.119288-2.5,2.5-2.5" fill="none" stroke="#000" stroke-width="1.5"/><line x1="1601.515" y1="356.2969" x2="1661.2865" y2="356.2969" stroke="#000" stroke-width="1.5"/><text dx="0" dy="0" font-family="sans-serif" font-size="14" font-weight="700" transform="translate(1605.515 348.9951)"><![CDATA[
entity
]]></text></g><g><path d="M1185.015,6h44.791c1.198531.363559,2.136441,1.301469,2.5,2.5l7,19.7969h433.709c1.380712,0,2.5,1.119288,2.5,2.5v168.7031c0,1.380712-1.119288,2.5-2.5,2.5h-488c-1.380712,0-2.5-1.119288-2.5-2.5v-191c0-1.380712,1.119288-2.5,2.5-2.5" fill="none" stroke="#000" stroke-width="1.5"/><line x1="1182.515" y1="28.2969" x2="1239.306" y2="28.2969" stroke="#000" stroke-width="1.5"/><text dx="0" dy="0" font-family="sans-serif" font-size="14" font-weight="700" transform="translate(1186.515 20.9951)"><![CDATA[
Visits
]]></text><text dx="0" dy="0" font-family="sans-serif" font-size="14" font-weight="400" font-style="italic" transform="translate(1370.8592 43.292)"><![CDATA[
«domain service»
]]></text></g><g><path d="M1544.015,73h47.7715c1.198531.363559,2.136441,1.301469,2.5,2.5l7,19.7969h39.7285c1.380712,0,2.5,1.119288,2.5,2.5v69.7031c0,1.380712-1.119288,2.5-2.5,2.5h-97c-1.380712,0-2.5-1.119288-2.5-2.5v-92c0-1.380712,1.119288-2.5,2.5-2.5" fill="none" stroke="#000" stroke-width="1.5"/><line x1="1541.515" y1="95.2969" x2="1601.2865" y2="95.2969" stroke="#000" stroke-width="1.5"/><text dx="0" dy="0" font-family="sans-serif" font-size="14" font-weight="700" transform="translate(1545.515 87.9951)"><![CDATA[
entity
]]></text></g><g><path d="M882.015,747h69.6533c1.198531.363559,2.136441,1.301469,2.5,2.5l7,19.7969h217.8467c1.380712,0,2.5,1.119288,2.5,2.5v101.7031c0,1.380712-1.119288,2.5-2.5,2.5h-297c-1.380712,0-2.5-1.119288-2.5-2.5v-124c0-1.380712,1.119288-2.5,2.5-2.5" fill="none" stroke="#000" stroke-width="1.5"/><line x1="879.515" y1="769.2969" x2="961.1683" y2="769.2969" stroke="#000" stroke-width="1.5"/><text dx="0" dy="0" font-family="sans-serif" font-size="14" font-weight="700" transform="translate(883.515 761.9951)"><![CDATA[
Common
]]></text><text dx="0" dy="0" font-family="sans-serif" font-size="14" font-weight="400" font-style="italic" transform="translate(977.722 784.292)"><![CDATA[
«shared kernel»
]]></text></g><g><rect width="141.985" height="46.2969" rx="2.5" ry="2.5" transform="translate(105.515 369)" fill="#f1f1f1" stroke="#181818" stroke-width="0.5"/><rect width="15" height="10" rx="0" ry="0" transform="translate(227.5 374)" fill="#f1f1f1" stroke="#181818" stroke-width="0.5"/><rect width="4" height="2" rx="0" ry="0" transform="translate(225.5 376)" fill="#f1f1f1" stroke="#181818" stroke-width="0.5"/><rect width="4" height="2" rx="0" ry="0" transform="translate(225.5 380)" fill="#f1f1f1" stroke="#181818" stroke-width="0.5"/><text dx="0" dy="0" font-family="sans-serif" font-size="14" font-weight="400" transform="translate(120.515 401.9951)"><![CDATA[
AuthController
]]></text></g><g><rect width="124.554" height="46.2969" rx="2.5" ry="2.5" transform="translate(283.015 369)" fill="#f1f1f1" stroke="#181818" stroke-width="0.5"/><rect width="15" height="10" rx="0" ry="0" transform="translate(387.569 374)" fill="#f1f1f1" stroke="#181818" stroke-width="0.5"/><rect width="4" height="2" rx="0" ry="0" transform="translate(385.569 376)" fill="#f1f1f1" stroke="#181818" stroke-width="0.5"/><rect width="4" height="2" rx="0" ry="0" transform="translate(385.569 380)" fill="#f1f1f1" stroke="#181818" stroke-width="0.5"/><text dx="0" dy="0" font-family="sans-serif" font-size="14" font-weight="400" transform="translate(298.015 401.9951)"><![CDATA[
AuthService
]]></text></g><g transform="translate(0 0.000001)"><rect width="90.2373" height="46.2969" rx="2.5" ry="2.5" transform="translate(131.515 588.000001)" fill="#f1f1f1" stroke="#181818" stroke-width="0.5"/><rect width="15" height="10" rx="0" ry="0" transform="translate(201.752 593)" fill="#f1f1f1" stroke="#181818" stroke-width="0.5"/><rect width="4" height="2" rx="0" ry="0" transform="translate(199.752 595)" fill="#f1f1f1" stroke="#181818" stroke-width="0.5"/><rect width="4" height="2" rx="0" ry="0" transform="translate(199.752 599)" fill="#f1f1f1" stroke="#181818" stroke-width="0.5"/><text dx="0" dy="0" font-family="sans-serif" font-size="14" font-weight="400" transform="translate(146.515 620.9951)"><![CDATA[
Guards
]]></text></g><g transform="translate(0 0.000001)"><rect width="111.497" height="46.2969" rx="2.5" ry="2.5" transform="translate(257.015 588.000001)" fill="#f1f1f1" stroke="#181818" stroke-width="0.5"/><rect width="15" height="10" rx="0" ry="0" transform="translate(348.512 593)" fill="#f1f1f1" stroke="#181818" stroke-width="0.5"/><rect width="4" height="2" rx="0" ry="0" transform="translate(346.512 595)" fill="#f1f1f1" stroke="#181818" stroke-width="0.5"/><rect width="4" height="2" rx="0" ry="0" transform="translate(346.512 599)" fill="#f1f1f1" stroke="#181818" stroke-width="0.5"/><text dx="0" dy="0" font-family="sans-serif" font-size="14" font-weight="400" transform="translate(272.015 620.9951)"><![CDATA[
Strategies
]]></text></g><g transform="translate(0 0.000001)"><rect width="148.377" height="46.2969" rx="2.5" ry="2.5" transform="translate(682.515 588.000001)" fill="#f1f1f1" stroke="#181818" stroke-width="0.5"/><rect width="15" height="10" rx="0" ry="0" transform="translate(810.892 593)" fill="#f1f1f1" stroke="#181818" stroke-width="0.5"/><rect width="4" height="2" rx="0" ry="0" transform="translate(808.892 595)" fill="#f1f1f1" stroke="#181818" stroke-width="0.5"/><rect width="4" height="2" rx="0" ry="0" transform="translate(808.892 599)" fill="#f1f1f1" stroke="#181818" stroke-width="0.5"/><text dx="0" dy="0" font-family="sans-serif" font-size="14" font-weight="400" transform="translate(697.515 620.9951)"><![CDATA[
UsersController
]]></text></g><g transform="translate(0 0.000001)"><rect width="130.945" height="46.2969" rx="2.5" ry="2.5" transform="translate(516.015 588.000001)" fill="#f1f1f1" stroke="#181818" stroke-width="0.5"/><rect width="15" height="10" rx="0" ry="0" transform="translate(626.96 593)" fill="#f1f1f1" stroke="#181818" stroke-width="0.5"/><rect width="4" height="2" rx="0" ry="0" transform="translate(624.96 595)" fill="#f1f1f1" stroke="#181818" stroke-width="0.5"/><rect width="4" height="2" rx="0" ry="0" transform="translate(624.96 599)" fill="#f1f1f1" stroke="#181818" stroke-width="0.5"/><text dx="0" dy="0" font-family="sans-serif" font-size="14" font-weight="400" transform="translate(531.015 620.9951)"><![CDATA[
UsersService
]]></text></g><g transform="translate(0 0.000001)"><rect width="71.9102" height="46.2969" rx="2.5" ry="2.5" transform="translate(865.515 588.000001)" fill="#f1f1f1" stroke="#181818" stroke-width="0.5"/><rect width="15" height="10" rx="0" ry="0" transform="translate(917.425 593)" fill="#f1f1f1" stroke="#181818" stroke-width="0.5"/><rect width="4" height="2" rx="0" ry="0" transform="translate(915.425 595)" fill="#f1f1f1" stroke="#181818" stroke-width="0.5"/><rect width="4" height="2" rx="0" ry="0" transform="translate(915.425 599)" fill="#f1f1f1" stroke="#181818" stroke-width="0.5"/><text dx="0" dy="0" font-family="sans-serif" font-size="14" font-weight="400" transform="translate(880.515 620.9951)"><![CDATA[
User
]]></text></g><g><rect width="168.967" height="46.2969" rx="2.5" ry="2.5" transform="translate(1413.02 369)" fill="#f1f1f1" stroke="#181818" stroke-width="0.5"/><rect width="15" height="10" rx="0" ry="0" transform="translate(1561.98 374)" fill="#f1f1f1" stroke="#181818" stroke-width="0.5"/><rect width="4" height="2" rx="0" ry="0" transform="translate(1559.98 376)" fill="#f1f1f1" stroke="#181818" stroke-width="0.5"/><rect width="4" height="2" rx="0" ry="0" transform="translate(1559.98 380)" fill="#f1f1f1" stroke="#181818" stroke-width="0.5"/><text dx="0" dy="0" font-family="sans-serif" font-size="14" font-weight="400" transform="translate(1428.015 401.9951)"><![CDATA[
PropertyController
]]></text></g><g><rect width="151.535" height="46.2969" rx="2.5" ry="2.5" transform="translate(1225.52 369)" fill="#f1f1f1" stroke="#181818" stroke-width="0.5"/><rect width="15" height="10" rx="0" ry="0" transform="translate(1357.05 374)" fill="#f1f1f1" stroke="#181818" stroke-width="0.5"/><rect width="4" height="2" rx="0" ry="0" transform="translate(1355.05 376)" fill="#f1f1f1" stroke="#181818" stroke-width="0.5"/><rect width="4" height="2" rx="0" ry="0" transform="translate(1355.05 380)" fill="#f1f1f1" stroke="#181818" stroke-width="0.5"/><text dx="0" dy="0" font-family="sans-serif" font-size="14" font-weight="400" transform="translate(1240.515 401.9951)"><![CDATA[
PropertyService
]]></text></g><g><rect width="99.7939" height="46.2969" rx="2.5" ry="2.5" transform="translate(1617.52 369)" fill="#f1f1f1" stroke="#181818" stroke-width="0.5"/><rect width="15" height="10" rx="0" ry="0" transform="translate(1697.31 374)" fill="#f1f1f1" stroke="#181818" stroke-width="0.5"/><rect width="4" height="2" rx="0" ry="0" transform="translate(1695.31 376)" fill="#f1f1f1" stroke="#181818" stroke-width="0.5"/><rect width="4" height="2" rx="0" ry="0" transform="translate(1695.31 380)" fill="#f1f1f1" stroke="#181818" stroke-width="0.5"/><text dx="0" dy="0" font-family="sans-serif" font-size="14" font-weight="400" transform="translate(1632.515 401.9951)"><![CDATA[
Property
]]></text></g><g><rect width="85.7119" height="46.2969" rx="2.5" ry="2.5" transform="translate(1752.52 369)" fill="#f1f1f1" stroke="#181818" stroke-width="0.5"/><rect width="15" height="10" rx="0" ry="0" transform="translate(1818.23 374)" fill="#f1f1f1" stroke="#181818" stroke-width="0.5"/><rect width="4" height="2" rx="0" ry="0" transform="translate(1816.23 376)" fill="#f1f1f1" stroke="#181818" stroke-width="0.5"/><rect width="4" height="2" rx="0" ry="0" transform="translate(1816.23 380)" fill="#f1f1f1" stroke="#181818" stroke-width="0.5"/><text dx="0" dy="0" font-family="sans-serif" font-size="14" font-weight="400" transform="translate(1767.515 401.9951)"><![CDATA[
Owner
]]></text></g><g><rect width="153.77" height="46.2969" rx="2.5" ry="2.5" transform="translate(1873.52 369)" fill="#f1f1f1" stroke="#181818" stroke-width="0.5"/><rect width="15" height="10" rx="0" ry="0" transform="translate(2007.29 374)" fill="#f1f1f1" stroke="#181818" stroke-width="0.5"/><rect width="4" height="2" rx="0" ry="0" transform="translate(2005.29 376)" fill="#f1f1f1" stroke="#181818" stroke-width="0.5"/><rect width="4" height="2" rx="0" ry="0" transform="translate(2005.29 380)" fill="#f1f1f1" stroke="#181818" stroke-width="0.5"/><text dx="0" dy="0" font-family="sans-serif" font-size="14" font-weight="400" transform="translate(1888.515 401.9951)"><![CDATA[
PropertyFeature
]]></text></g><g transform="translate(0 0.000001)"><rect width="128.314" height="46.2969" rx="2.5" ry="2.5" transform="translate(1617.52 588.000001)" fill="#f1f1f1" stroke="#181818" stroke-width="0.5"/><rect width="15" height="10" rx="0" ry="0" transform="translate(1725.83 593)" fill="#f1f1f1" stroke="#181818" stroke-width="0.5"/><rect width="4" height="2" rx="0" ry="0" transform="translate(1723.83 595)" fill="#f1f1f1" stroke="#181818" stroke-width="0.5"/><rect width="4" height="2" rx="0" ry="0" transform="translate(1723.83 599)" fill="#f1f1f1" stroke="#181818" stroke-width="0.5"/><text dx="0" dy="0" font-family="sans-serif" font-size="14" font-weight="400" transform="translate(1632.515 620.9951)"><![CDATA[
FeatureType
]]></text></g><g transform="translate(0 0.000001)"><rect width="96.3076" height="46.2969" rx="2.5" ry="2.5" transform="translate(1780.52 588.000001)" fill="#f1f1f1" stroke="#181818" stroke-width="0.5"/><rect width="15" height="10" rx="0" ry="0" transform="translate(1856.82 593)" fill="#f1f1f1" stroke="#181818" stroke-width="0.5"/><rect width="4" height="2" rx="0" ry="0" transform="translate(1854.82 595)" fill="#f1f1f1" stroke="#181818" stroke-width="0.5"/><rect width="4" height="2" rx="0" ry="0" transform="translate(1854.82 599)" fill="#f1f1f1" stroke="#181818" stroke-width="0.5"/><text dx="0" dy="0" font-family="sans-serif" font-size="14" font-weight="400" transform="translate(1795.515 620.9951)"><![CDATA[
Address
]]></text></g><g><rect width="139.312" height="46.2969" rx="2.5" ry="2.5" transform="translate(1383.02 108)" fill="#f1f1f1" stroke="#181818" stroke-width="0.5"/><rect width="15" height="10" rx="0" ry="0" transform="translate(1502.33 113)" fill="#f1f1f1" stroke="#181818" stroke-width="0.5"/><rect width="4" height="2" rx="0" ry="0" transform="translate(1500.33 115)" fill="#f1f1f1" stroke="#181818" stroke-width="0.5"/><rect width="4" height="2" rx="0" ry="0" transform="translate(1500.33 119)" fill="#f1f1f1" stroke="#181818" stroke-width="0.5"/><text dx="0" dy="0" font-family="sans-serif" font-size="14" font-weight="400" transform="translate(1398.015 140.9951)"><![CDATA[
VisitController
]]></text></g><g><rect width="121.881" height="46.2969" rx="2.5" ry="2.5" transform="translate(1225.52 108)" fill="#f1f1f1" stroke="#181818" stroke-width="0.5"/><rect width="15" height="10" rx="0" ry="0" transform="translate(1327.4 113)" fill="#f1f1f1" stroke="#181818" stroke-width="0.5"/><rect width="4" height="2" rx="0" ry="0" transform="translate(1325.4 115)" fill="#f1f1f1" stroke="#181818" stroke-width="0.5"/><rect width="4" height="2" rx="0" ry="0" transform="translate(1325.4 119)" fill="#f1f1f1" stroke="#181818" stroke-width="0.5"/><text dx="0" dy="0" font-family="sans-serif" font-size="14" font-weight="400" transform="translate(1240.515 140.9951)"><![CDATA[
VisitService
]]></text></g><g><rect width="70.1396" height="46.2969" rx="2.5" ry="2.5" transform="translate(1557.52 108)" fill="#f1f1f1" stroke="#181818" stroke-width="0.5"/><rect width="15" height="10" rx="0" ry="0" transform="translate(1607.65 113)" fill="#f1f1f1" stroke="#181818" stroke-width="0.5"/><rect width="4" height="2" rx="0" ry="0" transform="translate(1605.65 115)" fill="#f1f1f1" stroke="#181818" stroke-width="0.5"/><rect width="4" height="2" rx="0" ry="0" transform="translate(1605.65 119)" fill="#f1f1f1" stroke="#181818" stroke-width="0.5"/><text dx="0" dy="0" font-family="sans-serif" font-size="14" font-weight="400" transform="translate(1572.515 140.9951)"><![CDATA[
Visit
]]></text></g><g transform="translate(0 0.000001)"><rect width="87.5234" height="46.2969" rx="2.5" ry="2.5" transform="translate(1069.52 806.000001)" fill="#f1f1f1" stroke="#181818" stroke-width="0.5"/><rect width="15" height="10" rx="0" ry="0" transform="translate(1137.04 811)" fill="#f1f1f1" stroke="#181818" stroke-width="0.5"/><rect width="4" height="2" rx="0" ry="0" transform="translate(1135.04 813)" fill="#f1f1f1" stroke="#181818" stroke-width="0.5"/><rect width="4" height="2" rx="0" ry="0" transform="translate(1135.04 817)" fill="#f1f1f1" stroke="#181818" stroke-width="0.5"/><text dx="0" dy="0" font-family="sans-serif" font-size="14" font-weight="400" transform="translate(1084.515 838.9951)"><![CDATA[
Enums
]]></text></g><g transform="translate(0 0.000001)"><rect width="110.506" height="46.2969" rx="2.5" ry="2.5" transform="translate(923.015 806.000001)" fill="#f1f1f1" stroke="#181818" stroke-width="0.5"/><rect width="15" height="10" rx="0" ry="0" transform="translate(1013.52 811)" fill="#f1f1f1" stroke="#181818" stroke-width="0.5"/><rect width="4" height="2" rx="0" ry="0" transform="translate(1011.52 813)" fill="#f1f1f1" stroke="#181818" stroke-width="0.5"/><rect width="4" height="2" rx="0" ry="0" transform="translate(1011.52 817)" fill="#f1f1f1" stroke="#181818" stroke-width="0.5"/><text dx="0" dy="0" font-family="sans-serif" font-size="14" font-weight="400" transform="translate(938.015 838.9951)"><![CDATA[
Validators
]]></text></g><g><path d="M1699.515,103.5v55.3984h288.4141v-45.3984l-10-10h-278.4141" fill="#feffdd" stroke="#181818" stroke-width="0.5"/><path d="M1977.9291,103.5v10h10l-10-10" fill="#feffdd" stroke="#181818"/><text dx="0" dy="0" font-family="sans-serif" font-size="13" font-weight="400" transform="translate(1705.515 120.5669)"><![CDATA[
DTOs (Data Transfer Objects) são
]]></text><text dx="0" dy="0" font-family="sans-serif" font-size="13" font-weight="400" transform="translate(1705.515 135.6997)"><![CDATA[
definidos por pacote, seguindo o padrão:
]]></text><text dx="0" dy="0" font-family="sans-serif" font-size="13" font-weight="400" transform="translate(1705.515 150.8325)"><![CDATA[
src/<modulo>/dto/request|response
]]></text></g><g><path d="M432.5396,477.2394c.3627.3656.7227.7341,1.0799,1.1054c2.8582,2.9699,5.5431,6.1163,8.0653,9.4032c5.0443,6.5738,9.4375,13.7097,13.263,21.1204c7.651,14.8216,13.031,30.7429,16.8072,45.4666.236.9202-.9658-3.9909-.7421-3.0806" fill="none" stroke="#181818" stroke-dasharray="7,7"/><polygon points="472.4444,557.0811 474.1816,547.3867 471.2515,552.2255 466.4126,549.2954 472.4444,557.0811" fill="#181818" stroke="#181818"/><text dx="0" dy="0" font-family="sans-serif" font-size="13" font-weight="400" transform="translate(411.515 458.0669)"><![CDATA[
«usa»
]]></text></g><g><path d="M62.2577,409.6169c-.1103.2343-.2215.4707-.3334.7094-.224.4773-.4512.9633-.6815,1.4581-.4606.9895-.9336,2.0136-1.418,3.0712-1.9376,4.2304-4.0564,8.9971-6.2851,14.23C44.625,450.0175,33.9538,478.41,26.105,509.785C10.4075,572.535,6,647.215,49.515,698c60.825,70.995,267.5375,103.545,460.4213,118.3213c96.4418,7.3881,189.4265,10.3328,258.9895,11.4179c34.7815.5426,63.7075.6203,84.2826.5561c10.2875-.0321,18.4873-.0997,24.2874-.1624.3625-.0039-5.284.0598-4.9403.0559" fill="none" stroke="#181818" stroke-dasharray="7,7"/><polygon points="878.5551,828.1213 869.5106,824.2228 873.5554,828.1775 869.6007,832.2223 878.5551,828.1213" fill="#181818" stroke="#181818"/><text dx="0" dy="0" font-family="sans-serif" font-size="13" font-weight="400" transform="translate(20.816179 579.86595)"><tspan font-family="sans-serif" font-size="13" font-weight="400" font-style="normal" transform="translate(50.515 615.5669)"><![CDATA[
«usa»
]]></tspan></text></g><g><path d="M489.3979,682.3551c.1256.2709.2528.5411.3815.8103.515,1.0772,1.0549,2.1406,1.6208,3.1879c2.2639,4.1894,4.9448,8.1217,8.1148,11.6467c60.33,67.085,156.29,99.6025,237.6813,115.34c40.6956,7.8687,77.749,11.5425,104.8854,13.2447c13.5682.8511,24.6572,1.2093,32.4825,1.3525.9782.0179,1.9053.0325,2.78.0442.4373.0059.8615.011,1.2724.0156.2054.0022-5.5922-.0546-5.3935-.0527" fill="none" stroke="#181818" stroke-dasharray="7,7"/><polygon points="879.2229,828.0033 870.2626,823.915 874.2231,827.9541 870.184,831.9147 879.2229,828.0033" fill="#181818" stroke="#181818"/><text dx="0" dy="0" font-family="sans-serif" font-size="13" font-weight="400" transform="translate(523.515 719.0669)"><![CDATA[
«usa»
]]></text></g><g><path d="M1182.0834,394.2348c-.22.032-.4443.0647-.6726.0979-1.8266.2655-3.916.5686-6.2571.9071-9.3647,1.3541-22.7572,3.2751-39.4689,5.6319-33.4232,4.7136-80.1229,11.1702-134.4286,18.3196C892.645,433.49,753.61,450.56,629.515,462c-14.41,1.33-119.4-1.85-130,8-2.8306,2.6294-5.3849,5.4651-7.6861,8.4719-1.1506,1.5034-2.2379,3.0495-3.2648,4.634-.5135.7922,2.0618-3.5589,1.5781-2.748" fill="none" stroke="#181818" stroke-dasharray="7,7"/><polygon points="487.0685,485.5108 495.1143,479.8305 489.6299,481.2167 488.2437,475.7323 487.0685,485.5108" fill="#181818" stroke="#181818"/><text dx="0" dy="0" font-family="sans-serif" font-size="13" font-weight="400" transform="translate(784.515 458.0669)"><![CDATA[
«referencia proprietário»
]]></text></g><g><path d="M1182.438,405.9148c-.1277.2016-.2568.4053-.3874.6111-.2612.4118-.5281.832-.8006,1.2608-1.0903,1.715-2.2713,3.5654-3.5399,5.5439-2.5374,3.9569-5.4257,8.4262-8.6409,13.3489-12.8608,19.6908-30.9523,46.6361-52.7405,77.0667C1072.7525,564.6075,1014.39,639.41,953.515,698c-18.13,17.45-32.3,11.9-46,33-2.95,4.5425-5.4769,9.4358-7.6401,14.5247-.1352.3181-.269.6369-.4014.9565-.0661.1598,2.1391-5.2338,2.0736-5.0737" fill="none" stroke="#181818" stroke-dasharray="7,7"/><polygon points="899.276,746.961 906.3851,740.1448 901.1686,742.3331 898.9803,737.1166 899.276,746.961" fill="#181818" stroke="#181818"/><text dx="0" dy="0" font-family="sans-serif" font-size="13" font-weight="400" transform="translate(1028.52 622.660814)"><tspan font-family="sans-serif" font-size="13" font-weight="400" font-style="normal" transform="translate(1138.515 615.5669)"><![CDATA[
«usa enums/validators»
]]></tspan></text></g><g><path d="M1182.016,133.1691c-.554.0804-1.1337.1652-1.739.2544-1.2105.1784-2.523.3747-3.9345.5894-2.8229.4293-6.0421.9321-9.634,1.5132-14.3677,2.3241-34.7007,5.8994-59.5079,11.0223-49.6144,10.246-117.1256,26.6829-190.6056,51.6841C769.635,248.235,598.8,332.495,499.515,470c-2.2619,3.1319-4.3174,6.4083-6.1834,9.7997-.9329,1.6957-1.8185,3.4201-2.6589,5.1695-.105.2187,2.3527-4.9877,2.249-4.7683" fill="none" stroke="#181818" stroke-dasharray="7,7"/><polygon points="490.3597,485.6264 497.8197,479.1962 492.4947,481.1052 490.5857,475.7802 490.3597,485.6264" fill="#181818" stroke="#181818"/><text dx="0" dy="0" font-family="sans-serif" font-size="13" font-weight="400" transform="translate(620.740987 259.36071)"><tspan font-family="sans-serif" font-size="13" font-weight="400" font-style="normal" transform="translate(778.515 396.5669)"><![CDATA[
«referencia visitante»
]]></tspan></text></g><g><path d="M1190.515,202.2889c0,.4485,0,.8981,0,1.349c0,3.607,0,7.2893,0,11.0319c0,14.9706,0,30.9061,0,46.8415c0,.9959,0,1.9919,0,2.9876c0,.4978,0,.9956,0,1.4934c0,.2488,0-5.5024,0-5.2535" fill="none" stroke="#181818" stroke-dasharray="7,7"/><polygon points="1190.515,266.7388 1194.515,257.7388 1190.515,261.7388 1186.515,257.7388 1190.515,266.7388" fill="#181818" stroke="#181818"/><text dx="0" dy="0" font-family="sans-serif" font-size="13" font-weight="400" transform="translate(1068.229455 238.860831)"><tspan font-family="sans-serif" font-size="13" font-weight="400" font-style="normal" transform="translate(1191.515 239.0669)"><![CDATA[
«referencia imóvel»
]]></tspan></text></g><g><path d="M1197.3444,202.2511c.0669.133.1342.2658.202.3983.2711.5299.5499,1.0552.8364,1.5755.5732,1.0408,1.1777,2.0617,1.8149,3.06c2.5489,3.9934,5.6223,7.6251,9.3173,10.7151c8.89,7.44,825.96,24.64,834,33c137.67,143.23,138.42,304.5,0,447-22,22.64-1111.82,12.71-1136,33-4.1487,3.4825-7.5794,7.5766-10.4058,12.079-.7066,1.1256-1.3754,2.2767-2.0083,3.4502-.0791.1466,2.6487-5.0096,2.5707-4.8622" fill="none" stroke="#181818" stroke-dasharray="7,7"/><polygon points="894.8653,746.9702 902.6102,740.8862 897.2039,742.5509 895.5392,737.1445 894.8653,746.9702" fill="#181818" stroke="#181818"/><text dx="0" dy="0" font-family="sans-serif" font-size="13" font-weight="400" transform="translate(2147.515 458.0669)"><![CDATA[
«usa enums»
]]></text></g></g></svg>
