<svg xmlns="http://www.w3.org/2000/svg" xmlns:xlink="http://www.w3.org/1999/xlink" contentStyleType="text/css" data-diagram-type="DESCRIPTION" height="868px" preserveAspectRatio="none" style="width:773px;height:868px;background:#FFFFFF;" version="1.1" viewBox="0 0 773 868" width="773px" zoomAndPan="magnify"><title>Diagrama de Implanta&#231;&#227;o - Ambiente de Desenvolvimento Local</title><defs/><g><text fill="#000000" font-family="sans-serif" font-size="14" font-weight="bold" lengthAdjust="spacing" textLength="506.4883" x="126.2559" y="22.9951">Diagrama de Implanta&#231;&#227;o - Ambiente de Desenvolvimento Local</text><!--cluster DevMachine--><g class="cluster" data-entity="DevMachine" data-source-line="3" data-uid="ent0002" id="cluster_DevMachine"><polygon fill="none" points="16,53.2969,26,43.2969,756,43.2969,756,841.2969,746,851.2969,16,851.2969,16,53.2969" style="stroke:#181818;stroke-width:1;"/><line style="stroke:#181818;stroke-width:1;" x1="746" x2="756" y1="53.2969" y2="43.2969"/><line style="stroke:#181818;stroke-width:1;" x1="16" x2="746" y1="53.2969" y2="53.2969"/><line style="stroke:#181818;stroke-width:1;" x1="746" x2="746" y1="53.2969" y2="851.2969"/><text fill="#000000" font-family="sans-serif" font-size="14" font-weight="bold" lengthAdjust="spacing" textLength="303.8301" x="230.085" y="69.292">M&#225;quina do Desenvolvedor (localhost)</text></g><!--cluster Docker--><g class="cluster" data-entity="Docker" data-source-line="5" data-uid="ent0003" id="cluster_Docker"><polygon fill="none" points="63,294.2969,73,284.2969,608,284.2969,608,817.2969,598,827.2969,63,827.2969,63,294.2969" style="stroke:#181818;stroke-width:1;"/><line style="stroke:#181818;stroke-width:1;" x1="598" x2="608" y1="294.2969" y2="284.2969"/><line style="stroke:#181818;stroke-width:1;" x1="63" x2="598" y1="294.2969" y2="294.2969"/><line style="stroke:#181818;stroke-width:1;" x1="598" x2="598" y1="294.2969" y2="827.2969"/><text fill="#000000" font-family="sans-serif" font-size="14" font-weight="bold" lengthAdjust="spacing" textLength="113.9346" x="274.5327" y="310.292">Docker Engine</text></g><!--cluster ApiContainer--><g class="cluster" data-entity="ApiContainer" data-source-line="7" data-uid="ent0004" id="cluster_ApiContainer"><rect fill="none" height="247" rx="2.5" ry="2.5" style="stroke:#181818;stroke-width:1;" width="481" x="95" y="340.2969"/><polygon fill="none" points="559,345.2969,559,359.2969,571,359.2969,571,351.2969,565,345.2969,559,345.2969" style="stroke:#181818;stroke-width:1;"/><line style="stroke:#181818;stroke-width:1;" x1="565" x2="565" y1="345.2969" y2="351.2969"/><line style="stroke:#181818;stroke-width:1;" x1="571" x2="565" y1="351.2969" y2="351.2969"/><text fill="#000000" font-family="sans-serif" font-size="14" font-weight="bold" lengthAdjust="spacing" textLength="271.5234" x="199.7383" y="355.292">API Backend (NestJS com Express)</text></g><!--cluster NodeRuntime--><g class="cluster" data-entity="NodeRuntime" data-source-line="8" data-uid="ent0005" id="cluster_NodeRuntime"><rect fill="none" height="164" rx="2.5" ry="2.5" style="stroke:#181818;stroke-width:1;" width="228" x="316" y="391.2969"/><rect fill="none" height="10" style="stroke:#181818;stroke-width:1;" width="15" x="524" y="396.2969"/><rect fill="none" height="2" style="stroke:#181818;stroke-width:1;" width="4" x="522" y="398.2969"/><rect fill="none" height="2" style="stroke:#181818;stroke-width:1;" width="4" x="522" y="402.2969"/><text fill="#000000" font-family="sans-serif" font-size="14" font-weight="bold" lengthAdjust="spacing" textLength="143.2607" x="358.3696" y="417.292">[Node.js Runtime]</text></g><!--cluster ExpressServer--><g class="cluster" data-entity="ExpressServer" data-source-line="9" data-uid="ent0006" id="cluster_ExpressServer"><rect fill="none" height="97" rx="2.5" ry="2.5" style="stroke:#181818;stroke-width:1;" width="180" x="340" y="434.2969"/><rect fill="none" height="10" style="stroke:#181818;stroke-width:1;" width="15" x="500" y="439.2969"/><rect fill="none" height="2" style="stroke:#181818;stroke-width:1;" width="4" x="498" y="441.2969"/><rect fill="none" height="2" style="stroke:#181818;stroke-width:1;" width="4" x="498" y="445.2969"/><text fill="#000000" font-family="sans-serif" font-size="14" font-weight="bold" lengthAdjust="spacing" textLength="164.7529" x="347.6235" y="460.292">[Servidor Express.js]</text></g><!--cluster DbContainer--><g class="cluster" data-entity="DbContainer" data-source-line="18" data-uid="ent0011" id="cluster_DbContainer"><path d="M106,677.2969 C106,667.2969 304,667.2969 304,667.2969 C304,667.2969 502,667.2969 502,677.2969 L502,785.2969 C502,795.2969 304,795.2969 304,795.2969 C304,795.2969 106,795.2969 106,785.2969 L106,677.2969" fill="none" style="stroke:#181818;stroke-width:1;"/><path d="M106,677.2969 C106,687.2969 304,687.2969 304,687.2969 C304,687.2969 502,687.2969 502,677.2969" fill="none" style="stroke:#181818;stroke-width:1;"/><text fill="#000000" font-family="sans-serif" font-size="14" font-weight="bold" lengthAdjust="spacing" textLength="232.8594" x="187.5703" y="702.292">Container do Banco de Dados</text></g><!--cluster ViteServer--><g class="cluster" data-entity="ViteServer" data-source-line="28" data-uid="ent0017" id="cluster_ViteServer"><rect fill="none" height="113" rx="2.5" ry="2.5" style="stroke:#181818;stroke-width:1;" width="388" x="336" y="99.2969"/><rect fill="none" height="10" style="stroke:#181818;stroke-width:1;" width="15" x="704" y="104.2969"/><rect fill="none" height="2" style="stroke:#181818;stroke-width:1;" width="4" x="702" y="106.2969"/><rect fill="none" height="2" style="stroke:#181818;stroke-width:1;" width="4" x="702" y="110.2969"/><text fill="#000000" font-family="sans-serif" font-size="14" font-weight="bold" lengthAdjust="spacing" textLength="213.7188" x="423.1406" y="125.292">Frontend (Vite Dev Server)</text></g><!--entity Browser--><g class="entity" data-entity="Browser" data-source-line="26" data-uid="ent0016" id="entity_Browser"><rect fill="#F1F1F1" height="39.2969" rx="2.5" ry="2.5" style="stroke:#181818;stroke-width:0.5;" width="142.417" x="32" y="145.7969"/><polygon fill="#F1F1F1" points="157.417,150.7969,157.417,164.7969,169.417,164.7969,169.417,156.7969,163.417,150.7969,157.417,150.7969" style="stroke:#181818;stroke-width:0.5;"/><line style="stroke:#181818;stroke-width:0.5;" x1="163.417" x2="163.417" y1="150.7969" y2="156.7969"/><line style="stroke:#181818;stroke-width:0.5;" x1="169.417" x2="163.417" y1="156.7969" y2="156.7969"/><text fill="#000000" font-family="sans-serif" font-size="14" lengthAdjust="spacing" textLength="112.417" x="42" y="171.792">Navegador Web</text></g><g class="entity" data-entity="GMN8" data-source-line="14" data-uid="ent0009" id="entity_GMN8"><path d="M138.5,479.7969 L138.5,504.9297 A0,0 0 0 0 138.5,504.9297 L299.2373,504.9297 A0,0 0 0 0 299.2373,504.9297 L299.2373,497.7969 L355.71,492.2969 L299.2373,489.7969 L299.2373,489.7969 L289.2373,479.7969 L138.5,479.7969 A0,0 0 0 0 138.5,479.7969" fill="#FEFFDD" style="stroke:#181818;stroke-width:0.5;"/><path d="M289.2373,479.7969 L289.2373,489.7969 L299.2373,489.7969 L289.2373,479.7969" fill="#FEFFDD" style="stroke:#181818;stroke-width:0.5;"/><text fill="#000000" font-family="sans-serif" font-size="13" lengthAdjust="spacing" textLength="139.7373" x="144.5" y="496.8638">Escuta na porta 8000</text></g><!--entity NestApp--><g class="entity" data-entity="NestApp" data-source-line="10" data-uid="ent0007" id="entity_NestApp"><rect fill="#F1F1F1" height="46.2969" rx="2.5" ry="2.5" style="stroke:#181818;stroke-width:0.5;" width="127.6094" x="356" y="469.2969"/><rect fill="#F1F1F1" height="10" style="stroke:#181818;stroke-width:0.5;" width="15" x="463.6094" y="474.2969"/><rect fill="#F1F1F1" height="2" style="stroke:#181818;stroke-width:0.5;" width="4" x="461.6094" y="476.2969"/><rect fill="#F1F1F1" height="2" style="stroke:#181818;stroke-width:0.5;" width="4" x="461.6094" y="480.2969"/><text fill="#000000" font-family="sans-serif" font-size="14" lengthAdjust="spacing" textLength="87.6094" x="371" y="502.292">[NestJS App]</text></g><!--entity PostgresDB--><g class="entity" data-entity="PostgresDB" data-source-line="19" data-uid="ent0012" id="entity_PostgresDB"><rect fill="#F1F1F1" height="46.2969" rx="2.5" ry="2.5" style="stroke:#181818;stroke-width:0.5;" width="131.6768" x="149" y="725.2969"/><rect fill="#F1F1F1" height="10" style="stroke:#181818;stroke-width:0.5;" width="15" x="260.6768" y="730.2969"/><rect fill="#F1F1F1" height="2" style="stroke:#181818;stroke-width:0.5;" width="4" x="258.6768" y="732.2969"/><rect fill="#F1F1F1" height="2" style="stroke:#181818;stroke-width:0.5;" width="4" x="258.6768" y="736.2969"/><text fill="#000000" font-family="sans-serif" font-size="14" lengthAdjust="spacing" textLength="91.6768" x="164" y="758.292">[PostgreSQL]</text></g><g class="entity" data-entity="GMN13" data-source-line="21" data-uid="ent0014" id="entity_GMN13"><path d="M316.5,735.7969 L316.5,744.2969 L281.12,748.2969 L316.5,752.2969 L316.5,760.9297 A0,0 0 0 0 316.5,760.9297 L477.2373,760.9297 A0,0 0 0 0 477.2373,760.9297 L477.2373,745.7969 L467.2373,735.7969 L316.5,735.7969 A0,0 0 0 0 316.5,735.7969" fill="#FEFFDD" style="stroke:#181818;stroke-width:0.5;"/><path d="M467.2373,735.7969 L467.2373,745.7969 L477.2373,745.7969 L467.2373,735.7969" fill="#FEFFDD" style="stroke:#181818;stroke-width:0.5;"/><text fill="#000000" font-family="sans-serif" font-size="13" lengthAdjust="spacing" textLength="139.7373" x="322.5" y="752.8638">Escuta na porta 5432</text></g><!--entity [React App]--><g class="entity" data-entity="[React App]" data-source-line="29" data-uid="ent0018" id="entity_[React App]"><rect fill="#F1F1F1" height="46.2969" rx="2.5" ry="2.5" style="stroke:#181818;stroke-width:0.5;" width="111.9072" x="588" y="142.2969"/><rect fill="#F1F1F1" height="10" style="stroke:#181818;stroke-width:0.5;" width="15" x="679.9072" y="147.2969"/><rect fill="#F1F1F1" height="2" style="stroke:#181818;stroke-width:0.5;" width="4" x="677.9072" y="149.2969"/><rect fill="#F1F1F1" height="2" style="stroke:#181818;stroke-width:0.5;" width="4" x="677.9072" y="153.2969"/><text fill="#000000" font-family="sans-serif" font-size="14" lengthAdjust="spacing" textLength="71.9072" x="603" y="175.292">React App</text></g><g class="entity" data-entity="GMN19" data-source-line="31" data-uid="ent0020" id="entity_GMN19"><path d="M379.5,145.2969 L379.5,185.5625 A0,0 0 0 0 379.5,185.5625 L552.9644,185.5625 A0,0 0 0 0 552.9644,185.5625 L552.9644,169.2969 L587.93,165.2969 L552.9644,161.2969 L552.9644,155.2969 L542.9644,145.2969 L379.5,145.2969 A0,0 0 0 0 379.5,145.2969" fill="#FEFFDD" style="stroke:#181818;stroke-width:0.5;"/><path d="M542.9644,145.2969 L542.9644,155.2969 L552.9644,155.2969 L542.9644,145.2969" fill="#FEFFDD" style="stroke:#181818;stroke-width:0.5;"/><text fill="#000000" font-family="sans-serif" font-size="13" lengthAdjust="spacing" textLength="152.4644" x="385.5" y="162.3638">Roda em 'npm run dev'</text><text fill="#000000" font-family="sans-serif" font-size="13" lengthAdjust="spacing" textLength="139.7373" x="385.5" y="177.4966">Escuta na porta 5173</text></g><!--link Browser to ViteServer--><g class="link" data-entity-1="Browser" data-entity-2="ViteServer" data-source-line="39" data-uid="lnk22" id="link_Browser_ViteServer"><path d="M174,165.2969 C207.88,165.2969 248.0775,165.2969 280.8763,165.2969 C297.2756,165.2969 311.8253,165.2969 322.8108,165.2969 C325.5571,165.2969 328.0808,165.2969 330.3548,165.2969 C331.4918,165.2969 332.5665,165.2969 333.5754,165.2969 C334.0798,165.2969 334.5678,165.2969 335.039,165.2969 C335.2746,165.2969 329.5059,165.2969 329.733,165.2969" fill="none" id="Browser-to-ViteServer" style="stroke:#181818;stroke-width:1;"/><polygon fill="#181818" points="335.733,165.2969,326.733,161.2969,330.733,165.2969,326.733,169.2969,335.733,165.2969" style="stroke:#181818;stroke-width:1;"/><text fill="#000000" font-family="sans-serif" font-size="13" lengthAdjust="spacing" textLength="133.0215" x="192.32" y="143.3638">HTTP (Acessa o site)</text><text fill="#000000" font-family="sans-serif" font-size="13" lengthAdjust="spacing" textLength="95.8179" x="210.9218" y="158.4966">localhost:5173</text></g><!--link Browser to ApiContainer--><g class="link" data-entity-1="Browser" data-entity-2="ApiContainer" data-source-line="42" data-uid="lnk23" id="link_Browser_ApiContainer"><path d="M103,185.1769 C103,202.3819 103,229.8863 103,261.522 C103,277.3399 103,294.1907 103,311.3033 C103,319.8596 103,328.4813 103,337.0722 C103,338.146 103,333.2194 103,334.2921" fill="none" id="Browser-to-ApiContainer" style="stroke:#181818;stroke-width:1;stroke-dasharray:7.0,7.0;"/><polygon fill="#181818" points="103,340.2921,107,331.2921,103,335.2921,99,331.2921,103,340.2921" style="stroke:#181818;stroke-width:1;"/><text fill="#000000" font-family="sans-serif" font-size="13" lengthAdjust="spacing" textLength="217.604" x="104" y="249.3638">HTTP (Chamadas &#224; API via CORS)</text><text fill="#000000" font-family="sans-serif" font-size="13" lengthAdjust="spacing" textLength="95.8179" x="164.8931" y="264.4966">localhost:8000</text></g><!--link ApiContainer to DbContainer--><g class="link" data-entity-1="ApiContainer" data-entity-2="DbContainer" data-source-line="45" data-uid="lnk24" id="link_ApiContainer_DbContainer"><path d="M107.3769,594.3774 C107.4595,596.2847 107.4065,595.0606 107.4898,596.9846 C107.8231,604.6803 108.1616,612.4942 108.5,620.3081 C109.1769,635.9359 109.8537,651.5635 110.4896,666.2442 C110.4996,666.4736 110.2499,660.7084 110.2598,660.9373" fill="none" id="ApiContainer-DbContainer" style="stroke:#181818;stroke-width:1;"/><polygon fill="#181818" points="107.1173,588.383,103.5105,597.5477,107.3336,593.3784,111.503,597.2015,107.1173,588.383" style="stroke:#181818;stroke-width:1;"/><polygon fill="#181818" points="110.5194,666.9317,114.1262,657.767,110.3031,661.9364,106.1337,658.1132,110.5194,666.9317" style="stroke:#181818;stroke-width:1;"/><text fill="#000000" font-family="sans-serif" font-size="13" lengthAdjust="spacing" textLength="176.2046" x="110" y="624.3638">TCP/IP (Protocolo Postgres)</text><text fill="#000000" font-family="sans-serif" font-size="13" lengthAdjust="spacing" textLength="53.9678" x="171.1184" y="639.4966">db:5432</text></g><!--SRC=[ZLJRRjD047ttLupyalR1eL0Gg4ALSaEaQjEGLF00F4pMcsJ1tZMx6nU1-YyW7lW2lY0_nepNSM9kGh9axyxjd3Cpzifd4eOALnPpX5J2E2yor1wttxVV32JGonTAQY_PDfHEwj9afShfoi2b4PX5aJPaYw-sNpzibAOaPkyeKsFXA6E_jN7-E0PqP2slKAoLbl0v0g0dP1WQyLvQ6EaLcO9dk66loWy0hLTB51xYtdGCVIIxJk5e8fs_c8CmEOm-5bOw5qhr2ZKmn8OIxj80UnL64mE8Nq-eSlUTWzb6UsBrjehYo_gY2Mg7pQKj5NEhgr6A45gVsNvGyRUg0MwlAEg2TAP3utqNjT_QK0EiMgrzup9oOkCHIE_2MFfuSd9oKXjP4Ow8GehgbQB71JfIUQy7DQgFMfYgjPWQ5pHV_5knAVLnPUNynMN0Nf_TiF__O1yzF7tmPx0ru7sR9rZA5RBKh-IYAjYtvjP96oRd0DapIxYhQNYfF0zh2Q4DOHJuijMMGr8poSMgVaGDXqmkTnHc9aMGENHqaOFTQ9Aix4H_8NV_yMdq2xMxY6Xr84aImhLKMeNrIWdNJ6QyR3-aupuCJBxHIkpMBqcYgEOBIQLfSdx8v0pYvpStKpZg2Pew10EEZCTlTBDoPmmdvkBNS84bpeLLXUVUwqRP9NvYXSIQ_W4CQVi5QBkQmjtkUNkHcgg3TWIK2c5mFPkt0F1aLW1wbO-e6LRBQc2ncy2K9v0-jBSi35Z9Ordz0A9MzQS9QN0ufGJdPZ2zDoP0Ksky4IOppLWIb7HnnWCN_mG0]--></g></svg>