<svg width="123" height="95" viewBox="0 0 123 95" fill="none" xmlns="http://www.w3.org/2000/svg">
<path d="M15.312 53.384C12.848 53.384 10.624 52.84 8.64 51.752C6.688 50.632 5.136 49.064 3.984 47.048C2.864 45 2.304 42.616 2.304 39.896C2.304 37.176 2.88 34.808 4.032 32.792C5.184 30.744 6.752 29.176 8.736 28.088C10.72 26.968 12.944 26.408 15.408 26.408C17.872 26.408 20.096 26.968 22.08 28.088C24.096 29.176 25.664 30.744 26.784 32.792C27.936 34.808 28.512 37.176 28.512 39.896C28.512 42.584 27.936 44.952 26.784 47C25.632 49.048 24.048 50.632 22.032 51.752C20.016 52.84 17.776 53.384 15.312 53.384ZM15.312 50.456C17.04 50.456 18.64 50.072 20.112 49.304C21.584 48.504 22.768 47.32 23.664 45.752C24.592 44.152 25.056 42.2 25.056 39.896C25.056 37.592 24.608 35.656 23.712 34.088C22.816 32.488 21.632 31.304 20.16 30.536C18.688 29.736 17.088 29.336 15.36 29.336C13.632 29.336 12.032 29.736 10.56 30.536C9.088 31.304 7.904 32.488 7.008 34.088C6.144 35.656 5.712 37.592 5.712 39.896C5.712 42.2 6.144 44.152 7.008 45.752C7.904 47.32 9.072 48.504 10.512 49.304C11.984 50.072 13.584 50.456 15.312 50.456ZM41.8369 26.312C43.8209 26.312 45.5969 26.728 47.1649 27.56C48.7649 28.392 50.0129 29.672 50.9089 31.4C51.8369 33.096 52.3009 35.176 52.3009 37.64V53H48.9889V38.024C48.9889 35.176 48.2689 33 46.8289 31.496C45.4209 29.992 43.4849 29.24 41.0209 29.24C38.4929 29.24 36.4769 30.04 34.9729 31.64C33.4689 33.24 32.7169 35.592 32.7169 38.696V53H29.3569V17.48H32.7169V31.256C33.5489 29.688 34.7649 28.472 36.3649 27.608C37.9969 26.744 39.8209 26.312 41.8369 26.312ZM52.9159 39.848C52.9159 37.16 53.4439 34.808 54.4999 32.792C55.5879 30.744 57.0759 29.176 58.9639 28.088C60.8839 26.968 63.0439 26.408 65.4439 26.408C67.9399 26.408 70.0839 26.984 71.8759 28.136C73.6999 29.288 75.0119 30.76 75.8119 32.552V26.792H79.1719V53H75.8119V47.192C74.9799 48.984 73.6519 50.472 71.8279 51.656C70.0359 52.808 67.8919 53.384 65.3959 53.384C63.0279 53.384 60.8839 52.824 58.9639 51.704C57.0759 50.584 55.5879 49 54.4999 46.952C53.4439 44.904 52.9159 42.536 52.9159 39.848ZM75.8119 39.896C75.8119 37.784 75.3799 35.928 74.5159 34.328C73.6519 32.728 72.4679 31.496 70.9639 30.632C69.4919 29.768 67.8599 29.336 66.0679 29.336C64.2119 29.336 62.5479 29.752 61.0759 30.584C59.6039 31.416 58.4359 32.632 57.5719 34.232C56.7399 35.8 56.3239 37.672 56.3239 39.848C56.3239 41.992 56.7399 43.88 57.5719 45.512C58.4359 47.112 59.6039 48.344 61.0759 49.208C62.5479 50.04 64.2119 50.456 66.0679 50.456C67.8599 50.456 69.4919 50.024 70.9639 49.16C72.4679 48.296 73.6519 47.064 74.5159 45.464C75.3799 43.864 75.8119 42.008 75.8119 39.896ZM84.9225 31.448C85.6585 29.816 86.7785 28.552 88.2825 27.656C89.8185 26.76 91.6905 26.312 93.8985 26.312V29.816H92.9865C90.5545 29.816 88.6025 30.472 87.1305 31.784C85.6585 33.096 84.9225 35.288 84.9225 38.36V53H81.5625V26.792H84.9225V31.448ZM92.1371 39.848C92.1371 37.16 92.6651 34.808 93.7211 32.792C94.8091 30.744 96.2971 29.176 98.1851 28.088C100.105 26.968 102.265 26.408 104.665 26.408C107.161 26.408 109.305 26.984 111.097 28.136C112.921 29.288 114.233 30.76 115.033 32.552V26.792H118.393V53H115.033V47.192C114.201 48.984 112.873 50.472 111.049 51.656C109.257 52.808 107.113 53.384 104.617 53.384C102.249 53.384 100.105 52.824 98.1851 51.704C96.2971 50.584 94.8091 49 93.7211 46.952C92.6651 44.904 92.1371 42.536 92.1371 39.848ZM115.033 39.896C115.033 37.784 114.601 35.928 113.737 34.328C112.873 32.728 111.689 31.496 110.185 30.632C108.713 29.768 107.081 29.336 105.289 29.336C103.433 29.336 101.769 29.752 100.297 30.584C98.8251 31.416 97.6571 32.632 96.7931 34.232C95.9611 35.8 95.5451 37.672 95.5451 39.848C95.5451 41.992 95.9611 43.88 96.7931 45.512C97.6571 47.112 98.8251 48.344 100.297 49.208C101.769 50.04 103.433 50.456 105.289 50.456C107.081 50.456 108.713 50.024 110.185 49.16C111.689 48.296 112.873 47.064 113.737 45.464C114.601 43.864 115.033 42.008 115.033 39.896Z" fill="white"/>
<path d="M6.04 60.304C5.80533 60.304 5.60267 60.2293 5.432 60.08C5.28267 59.9093 5.208 59.696 5.208 59.44C5.208 59.184 5.28267 58.9813 5.432 58.832C5.60267 58.6613 5.80533 58.576 6.04 58.576C6.27467 58.576 6.46667 58.6613 6.616 58.832C6.78667 58.9813 6.872 59.184 6.872 59.44C6.872 59.696 6.78667 59.9093 6.616 60.08C6.46667 60.2293 6.27467 60.304 6.04 60.304ZM6.36 64.72V82H5.72V64.72H6.36ZM32.3578 64.336C34.2778 64.336 35.8564 64.9653 37.0938 66.224C38.3311 67.4827 38.9498 69.3813 38.9498 71.92V82H38.3418V71.856C38.3418 69.5947 37.8084 67.8773 36.7418 66.704C35.6751 65.5093 34.2138 64.912 32.3578 64.912C30.4164 64.912 28.8484 65.6053 27.6538 66.992C26.4591 68.3573 25.8618 70.352 25.8618 72.976V82H25.2538V71.856C25.2538 69.5947 24.7204 67.8773 23.6538 66.704C22.5871 65.5093 21.1258 64.912 19.2698 64.912C17.3071 64.912 15.7284 65.6053 14.5338 66.992C13.3604 68.3573 12.7738 70.352 12.7738 72.976V82H12.1338V64.72H12.7738V69.296C13.2004 67.632 13.9898 66.3947 15.1418 65.584C16.3151 64.752 17.6911 64.336 19.2698 64.336C20.8911 64.336 22.2778 64.7947 23.4298 65.712C24.6031 66.608 25.3498 67.9733 25.6698 69.808C26.0538 67.9733 26.8431 66.608 28.0378 65.712C29.2538 64.7947 30.6938 64.336 32.3578 64.336ZM52.1955 82.224C50.5955 82.224 49.1555 81.872 47.8755 81.168C46.5955 80.4427 45.5822 79.4187 44.8355 78.096C44.1102 76.752 43.7475 75.1733 43.7475 73.36C43.7475 71.5467 44.1102 69.9787 44.8355 68.656C45.5822 67.312 46.5955 66.288 47.8755 65.584C49.1555 64.8587 50.5955 64.496 52.1955 64.496C53.7955 64.496 55.2355 64.8587 56.5155 65.584C57.7955 66.288 58.7982 67.312 59.5235 68.656C60.2488 69.9787 60.6115 71.5467 60.6115 73.36C60.6115 75.1733 60.2488 76.752 59.5235 78.096C58.7982 79.4187 57.7955 80.4427 56.5155 81.168C55.2355 81.872 53.7955 82.224 52.1955 82.224ZM52.1955 81.648C53.5822 81.648 54.8622 81.3493 56.0355 80.752C57.2088 80.1333 58.1582 79.2053 58.8835 77.968C59.6088 76.7307 59.9715 75.1947 59.9715 73.36C59.9715 71.5253 59.6088 69.9893 58.8835 68.752C58.1582 67.5147 57.2088 66.5973 56.0355 66C54.8622 65.3813 53.5822 65.072 52.1955 65.072C50.8088 65.072 49.5182 65.3813 48.3235 66C47.1502 66.5973 46.2008 67.5253 45.4755 68.784C44.7502 70.0213 44.3875 71.5467 44.3875 73.36C44.3875 75.1733 44.7502 76.7093 45.4755 77.968C46.2008 79.2053 47.1502 80.1333 48.3235 80.752C49.5182 81.3493 50.8088 81.648 52.1955 81.648ZM54.8515 59.088L48.8675 63.248V62.608L54.8515 58.32V59.088ZM71.1222 81.04L78.0343 64.72H78.7063L71.3462 82H70.8662L63.5062 64.72H64.2102L71.1222 81.04ZM89.895 81.648C91.8363 81.648 93.4683 81.1573 94.791 80.176C96.1137 79.1947 96.9137 77.8507 97.191 76.144H97.831C97.5323 77.9573 96.679 79.4293 95.271 80.56C93.8843 81.6693 92.0923 82.224 89.895 82.224C88.295 82.224 86.8657 81.872 85.607 81.168C84.3483 80.464 83.3563 79.44 82.631 78.096C81.927 76.752 81.575 75.1733 81.575 73.36C81.575 71.5467 81.927 69.968 82.631 68.624C83.3563 67.28 84.3483 66.256 85.607 65.552C86.8657 64.848 88.295 64.496 89.895 64.496C91.5803 64.496 93.0203 64.8587 94.215 65.584C95.4097 66.288 96.3057 67.2053 96.903 68.336C97.5217 69.4667 97.831 70.6613 97.831 71.92C97.831 72.688 97.8203 73.264 97.799 73.648H82.215C82.2363 75.4187 82.599 76.9013 83.303 78.096C84.0283 79.2907 84.967 80.1867 86.119 80.784C87.271 81.36 88.5297 81.648 89.895 81.648ZM89.895 65.072C88.5297 65.072 87.271 65.3707 86.119 65.968C84.967 66.544 84.0283 67.4293 83.303 68.624C82.599 69.8187 82.2363 71.3013 82.215 73.072H97.255C97.3617 71.3013 97.0737 69.8187 96.391 68.624C95.7297 67.4293 94.8123 66.544 93.639 65.968C92.487 65.3707 91.239 65.072 89.895 65.072ZM103.109 60.304C102.874 60.304 102.671 60.2293 102.501 60.08C102.351 59.9093 102.277 59.696 102.277 59.44C102.277 59.184 102.351 58.9813 102.501 58.832C102.671 58.6613 102.874 58.576 103.109 58.576C103.343 58.576 103.535 58.6613 103.685 58.832C103.855 58.9813 103.941 59.184 103.941 59.44C103.941 59.696 103.855 59.9093 103.685 60.08C103.535 60.2293 103.343 60.304 103.109 60.304ZM103.429 64.72V82H102.789V64.72H103.429ZM114.77 82.224C112.872 82.224 111.336 81.84 110.162 81.072C109.01 80.304 108.338 79.1413 108.146 77.584H108.786C108.914 78.864 109.48 79.8667 110.482 80.592C111.506 81.296 112.946 81.648 114.802 81.648C115.741 81.648 116.562 81.4667 117.266 81.104C117.992 80.7413 118.546 80.2613 118.93 79.664C119.314 79.0453 119.506 78.384 119.506 77.68C119.506 76.912 119.282 76.2933 118.834 75.824C118.408 75.3333 117.864 74.96 117.202 74.704C116.562 74.448 115.677 74.1707 114.546 73.872C113.288 73.552 112.264 73.232 111.474 72.912C110.706 72.592 110.045 72.1013 109.49 71.44C108.957 70.7787 108.69 69.904 108.69 68.816C108.69 68.048 108.925 67.3333 109.394 66.672C109.864 66.0107 110.504 65.488 111.314 65.104C112.146 64.6987 113.074 64.496 114.098 64.496C115.848 64.496 117.256 64.9333 118.322 65.808C119.389 66.6827 119.965 67.8987 120.05 69.456H119.41C119.346 68.176 118.856 67.1307 117.938 66.32C117.042 65.488 115.762 65.072 114.098 65.072C113.202 65.072 112.392 65.2427 111.666 65.584C110.941 65.9253 110.365 66.384 109.938 66.96C109.533 67.536 109.33 68.1547 109.33 68.816C109.33 69.7547 109.576 70.512 110.066 71.088C110.557 71.664 111.154 72.0907 111.858 72.368C112.584 72.6453 113.544 72.944 114.738 73.264C115.954 73.6053 116.904 73.9147 117.586 74.192C118.29 74.4693 118.888 74.896 119.378 75.472C119.869 76.0267 120.114 76.7627 120.114 77.68C120.114 78.5333 119.88 79.312 119.41 80.016C118.941 80.6987 118.301 81.2427 117.49 81.648C116.68 82.032 115.773 82.224 114.77 82.224Z" fill="white"/>
</svg>
